<svg height="512" viewBox="0 0 60 59" width="512" xmlns="http://www.w3.org/2000/svg"><g id="048---Hot-Air-Balloon" fill="none"><path id="Shape" d="m28.279 48c-.5214308.0017989-.9567241-.397365-1-.917l-.92-11.107c-.0458396-.5506279.3633721-1.0341604.914-1.08s1.0341604.3633721 1.08.914l.92 11.107c.0230083.2643026-.0599539.5269158-.2306249.7300331-.1706711.2031173-.4150612.3300893-.6793751.3529669-.028 0-.056 0-.084 0z" fill="#a56a43"/><path id="Shape" d="m31.721 48c-.028 0-.056 0-.084 0-.2644671-.0218973-.5093855-.148017-.6808174-.3505842-.1714318-.2025672-.2553173-.4649685-.2331826-.7294158l.92-11.107c.029653-.3561938.2470807-.6695107.5703801-.8219273s.7033537-.1207772.997.083c.2936464.2037772.4562729.5487335.4266199.9049273l-.92 11.107c-.04462.5169147-.4771631.9138469-.996.914z" fill="#a56a43"/><path id="Shape" d="m47.93 20c-1.2 6.44-5.49 13.63-10.15 17.99h-.01c-2.64 2.46-5.39 4.01-7.77 4.01s-5.13-1.55-7.77-4.01h-.01c-1.8877781-1.8048788-3.5651283-3.8176991-5-6l-5.13-11.88v-.01c-.4279588-2.024831-.4585249-4.1135131-.09-6.15.8443918-4.94623305 4.1110387-9.14030724 8.7-11.17 2.74062-1.19575404 5.6998914-1.80872166 8.69-1.8h.05c.36 0 .56.02.56.02s.22-.02.59-.02c2.9968811-.01187917 5.9633243.60116307 8.71 1.8 2.8291926 1.23382095 5.1929897 3.33497394 6.75 6z" fill="#802f34"/><path id="Shape" d="m39.4 2.69c-.0310412.03245289-.0644679.06253692-.1.09" fill="#802f34"/><path id="Shape" d="m24.279 48c-.507953-.0008103-.9346019-.3822998-.992-.887l-2.06-18c-.0537823-.3614895.0939209-.7235267.3852245-.9442288s.6798041-.2649121 1.0132478-.1153041c.3334436.149608.5587141.469202.5875277.8335329l2.06 18c.0620928.5479731-.3311561 1.0427777-.879 1.106-.0381445.0047871-.0765565.0071252-.115.007z" fill="#a56a43"/><path id="Shape" d="m35.721 48c-.0384435.0001252-.0768555-.0022129-.115-.007-.5478439-.0632223-.9410928-.5580269-.879-1.106l2.06-18c.0288136-.3643309.2540841-.6839249.5875277-.8335329.3334437-.149608.7219442-.105398 1.0132478.1153041s.4390068.5827393.3852245.9442288l-2.06 18c-.0573981.5047002-.484047.8861897-.992.887z" fill="#a56a43"/><path id="Shape" d="m24 50h12v7c0 1.1045695-.8954305 2-2 2h-8c-1.1045695 0-2-.8954305-2-2z" fill="#e4c05c"/><path id="Shape" d="m36 51h-12c-1.1045695 0-2-.8954305-2-2s.8954305-2 2-2h12c1.1045695 0 2 .8954305 2 2s-.8954305 2-2 2z" fill="#805333"/><path id="Shape" d="m47.93 20c-1.2 6.44-5.49 13.63-10.15 17.99h-.01c-.717761-.5266282-1.5189166-.9288962-2.37-1.19 2.9508663-5.393409 4.8064348-11.3169545 5.46-17.43l-.19-6.61c-.3634152-2.96650517-1.4824828-5.78999869-3.25-8.2-.1-.13-.21-.25-.31-.37h-.71c.25-.07.48-.15.71-.23.797104-.25354389 1.5398394-.6537392 2.19-1.18 2.8291926 1.23382095 5.1929897 3.33497394 6.75 6z" fill="#e64c3c"/><path id="Shape" d="m39.3 2.78c-.6501606.5262608-1.392896.92645611-2.19 1.18-.23.08-.46.16-.71.23-2.086538.55995836-4.2397479.83247399-6.4.81-2.1602521.02247399-4.313462-.25004164-6.4-.81-.25-.07-.48-.15-.71-.23-.797104-.25354389-1.5398394-.6537392-2.19-1.18 2.74062-1.19575404 5.6998914-1.80872166 8.69-1.8h.05c.36 0 .56.02.56.02s.22-.02.59-.02c2.9968811-.01187917 5.9633243.60116307 8.71 1.8z" fill="#f29c1f"/><path id="Shape" d="m40.86 19.37c-.6535652 6.1130455-2.5091337 12.036591-5.46 17.43-1.7468692-.5483736-3.5691726-.8183445-5.4-.8v-31c2.1602521.02247399 4.313462-.25004164 6.4-.81h.71c.1.12.21.24.31.37 1.7675172 2.41000131 2.8865848 5.23349483 3.25 8.2z" fill="#c03a2b"/><path id="Shape" d="m30 5v31c-1.8317741-.0210924-3.6550303.252396-5.4.81h-.01c-1.5076765-2.7069464-2.7148501-5.5706303-3.6-8.54l-.74-2.59c-1.0568036-3.814288-1.425899-7.7862963-1.09-11.73.6-4.81 2.07-7.85 3.73-9.76h.71c2.086538.55995836 4.2397479.83247399 6.4.81z" fill="#e64c3c"/><path id="Shape" d="m24.59 36.81c-.8482232.255819-1.6464108.6549129-2.36 1.18h-.01c-1.8877781-1.8048788-3.5651283-3.8176991-5-6l-5.13-11.88v-.01c-.4279588-2.024831-.4585249-4.1135131-.09-6.15.8443918-4.94623305 4.1110387-9.14030724 8.7-11.17.6501606.5262608 1.392896.92645611 2.19 1.18.23.08.46.16.71.23h-.71c-1.66 1.91-3.13 4.95-3.73 9.76-.335899 3.9437037.0331964 7.915712 1.09 11.73l.74 2.59c.8851499 2.9693697 2.0923235 5.8330536 3.6 8.54z" fill="#c03a2b"/><path id="Shape" d="m39.4 2.69c-.0310412.03245289-.0644679.06253692-.1.09" fill="#c03a2b"/><path id="Shape" d="m20.7 2.78c-.0355321-.02746308-.0689588-.05754711-.1-.09" fill="#c03a2b"/><path id="Shape" d="m21 28c0 2.209139-1.790861 4-4 4h-12c-2.209139 0-4-1.790861-4-4 .00133087-.2009829.01804638-.401569.05-.6.29634496-1.9532901 1.97435909-3.3976567 3.95-3.4.1137005-.0033139.22747217.0033785.34.02.7804861-2.2385421 2.80719968-3.806599 5.17-4 .16-.01.33-.02.49-.02s.33.01.49.02c2.3628003.193401 4.3895139 1.7614579 5.17 4 .1125278-.0166215.2262995-.0233139.34-.02 1.9756409.0023433 3.653655 1.4467099 3.95 3.4.0319536.198431.0486691.3990171.05.6z" fill="#bdc3c7"/><path id="Shape" d="m20.95 27.4c-.4495065 1.7910278-2.1062198 3.0115432-3.95 2.91h-12c-1.84378023.1015432-3.50049355-1.1189722-3.95-2.91.29634496-1.9532901 1.97435909-3.3976567 3.95-3.4.1137005-.0033139.22747217.0033785.34.02.7804861-2.2385421 2.80719968-3.806599 5.17-4 .16-.01.33-.02.49-.02s.33.01.49.02c2.3628003.193401 4.3895139 1.7614579 5.17 4 .1125278-.0166215.2262995-.0233139.34-.02 1.9756409.0023433 3.653655 1.4467099 3.95 3.4z" fill="#ecf0f1"/><path id="Shape" d="m59 16c0 2.209139-1.790861 4-4 4h-12c-2.209139 0-4-1.790861-4-4 .0009414-.2109527.0176547-.4215397.05-.63.3096304-1.9413711 1.9840924-3.3699627 3.95-3.37.1137005-.0033139.2274722.0033785.34.02.7804861-2.2385421 2.8071997-3.80659903 5.17-4 .16-.01.33-.02.49-.02s.33.01.49.02c2.3628003.19340097 4.3895139 1.7614579 5.17 4 .1125278-.0166215.2262995-.0233139.34-.02 1.9659076.0000373 3.6403696 1.4286289 3.95 3.37.0323453.2084603.0490586.4190473.05.63z" fill="#bdc3c7"/><path id="Shape" d="m58.95 15.37c-.4662882 1.7757929-2.116686 2.9791209-3.95 2.88h-12c-1.833314.0991209-3.4837118-1.1042071-3.95-2.88.3096304-1.9413711 1.9840924-3.3699627 3.95-3.37.1137005-.0033139.2274722.0033785.34.02.7804861-2.2385421 2.8071997-3.80659903 5.17-4 .16-.01.33-.02.49-.02s.33.01.49.02c2.3628003.19340097 4.3895139 1.7614579 5.17 4 .1125278-.0166215.2262995-.0233139.34-.02 1.9659076.0000373 3.6403696 1.4286289 3.95 3.37z" fill="#ecf0f1"/><g fill="#84b5cb"><path id="Shape" d="m12 42h-7c-.55228475 0-1-.4477153-1-1s.44771525-1 1-1h7c.5522847 0 1 .4477153 1 1s-.4477153 1-1 1z"/><path id="Shape" d="m18 42h-2c-.5522847 0-1-.4477153-1-1s.4477153-1 1-1h2c.5522847 0 1 .4477153 1 1s-.4477153 1-1 1z"/><path id="Shape" d="m13 46h-12c-.55228475 0-1-.4477153-1-1s.44771525-1 1-1h12c.5522847 0 1 .4477153 1 1s-.4477153 1-1 1z"/><path id="Shape" d="m53 42h-7c-.5522847 0-1-.4477153-1-1s.4477153-1 1-1h7c.5522847 0 1 .4477153 1 1s-.4477153 1-1 1z"/><path id="Shape" d="m59 42h-2c-.5522847 0-1-.4477153-1-1s.4477153-1 1-1h2c.5522847 0 1 .4477153 1 1s-.4477153 1-1 1z"/><path id="Shape" d="m54 46h-12c-.5522847 0-1-.4477153-1-1s.4477153-1 1-1h12c.5522847 0 1 .4477153 1 1s-.4477153 1-1 1z"/></g></g></svg>