<svg height="512pt" viewBox="-30 0 512 512.001" width="512pt" xmlns="http://www.w3.org/2000/svg"><path d="m443.53125 267.582031c0 22.027344-17.859375 39.886719-39.890625 39.886719-22.027344 0-39.886719-17.859375-39.886719-39.886719 0-22.03125 17.859375-39.890625 39.886719-39.890625 22.03125 0 39.890625 17.859375 39.890625 39.890625zm0 0" fill="#ffcabd"/><path d="m265.046875 425.304688 30.035156 39.597656-30.035156 39.597656h-79.0625l-30.035156-39.597656 30.035156-39.597656zm0 0" fill="#ebebeb"/><path d="m265.046875 425.304688h-79.0625l-30.035156 39.597656 9.898437 13.050781c4.222656 1.894531 8.910156 2.890625 13.910156 2.890625 8.367188 0 17.542969-2.828125 27.292969-8.414062 5.046875 2.242187 10.574219 3.433593 16.292969 3.433593h4.339844c5.722656 0 11.25-1.191406 16.296875-3.433593 9.746093 5.585937 18.921875 8.414062 27.292969 8.414062 4.996093 0 9.683593-.996094 13.910156-2.890625l9.898437-13.050781zm0 0" fill="#d5d4da"/><path d="m185.984375 425.304688v79.195312h-60.070313c0-53.304688 39.503907-79.195312 39.503907-79.195312zm0 0" fill="#4b5562"/><path d="m325.117188 504.5h-60.070313v-79.195312h20.566406s39.503907 25.890624 39.503907 79.195312zm0 0" fill="#4b5562"/><path d="m87.277344 267.582031c0 22.027344-17.859375 39.886719-39.886719 39.886719-22.03125 0-39.890625-17.859375-39.890625-39.886719 0-22.03125 17.859375-39.890625 39.890625-39.890625 22.027344 0 39.886719 17.859375 39.886719 39.890625zm0 0" fill="#ffcabd"/><path d="m403.640625 257.589844c0 98.375-79.75 178.125-178.125 178.125s-178.128906-79.75-178.128906-178.125c0-98.378906 79.753906-178.128906 178.128906-178.128906s178.125 79.75 178.125 178.128906zm0 0" fill="#ffdcce"/><path d="m49.265625 231.703125h352.496094c-6.53125-44.875-29.789063-84.324219-63.253907-111.816406h-225.984374c-33.464844 27.488281-56.722657 66.941406-63.257813 111.816406zm0 0" fill="#ffcabd"/><path d="m385.945312 89.59375-6.203124 60.289062-154.226563 25.914063-154.222656-25.914063-6.207031-60.289062 160.429687-41.046875zm0 0" fill="#800000"/><path d="m101.292969 149.882812-6.207031-60.289062 145.429687-37.207031-15-3.839844-160.429687 41.046875 6.207031 60.289062 154.222656 25.914063 15-2.523437zm0 0" fill="#d5d4da"/><path d="m359.308594 270.363281c0 27.34375-22.164063 49.507813-49.507813 49.507813-27.339843 0-49.503906-22.164063-49.503906-49.507813 0-27.339843 22.164063-49.503906 49.503906-49.503906 27.34375 0 49.507813 22.164063 49.507813 49.503906zm0 0" fill="#b1e2fd"/><path d="m298.242188 467.171875c4.085937-5.707031 6.617187-12.808594 7.667968-21.523437-10.054687-13.625-20.296875-20.34375-20.296875-20.34375h-20.566406v55.039062c2.121094.332031 4.199219.5 6.226563.5 11.082031 0 20.660156-4.855469 26.96875-13.671875zm0 0" fill="#393f50"/><path d="m185.984375 425.304688h-20.566406s-10.242188 6.714843-20.292969 20.34375c1.046875 8.714843 3.582031 15.8125 7.664062 21.523437 6.3125 8.816406 15.886719 13.671875 26.96875 13.671875 2.03125 0 4.105469-.171875 6.226563-.503906zm0 0" fill="#393f50"/><path d="m309.800781 220.859375c-11.691406 0-22.429687 4.066406-30.902343 10.84375h61.808593c-8.472656-6.777344-19.210937-10.84375-30.90625-10.84375zm0 0" fill="#80c4e6"/><path d="m428.019531 149.886719h-405.007812c-7.1875 0-13.015625 5.828125-13.015625 13.015625v25.785156c0 7.1875 5.828125 13.015625 13.015625 13.015625h405.003906c7.191406 0 13.019531-5.828125 13.019531-13.015625v-25.785156c0-7.1875-5.828125-13.015625-13.015625-13.015625zm0 0" fill="#4b5562"/><path d="m39.996094 188.6875v-25.785156c0-7.1875 5.828125-13.015625 13.015625-13.015625h-30c-7.1875 0-13.015625 5.828125-13.015625 13.015625v25.785156c0 7.1875 5.828125 13.015625 13.015625 13.015625h30c-7.1875 0-13.015625-5.828125-13.015625-13.015625zm0 0" fill="#393f50"/><path d="m390.640625 43.976562-4.695313 45.617188h-320.859374l-4.699219-45.617188c-2.007813-19.507812 13.304687-36.476562 32.910156-36.476562h264.4375c19.609375 0 34.917969 16.96875 32.90625 36.476562zm0 0" fill="#4b5562"/><path d="m123.296875 7.5h-30c-19.605469 0-34.917969 16.96875-32.910156 36.476562l4.699219 45.617188h30l-4.699219-45.617188c-2.007813-19.507812 13.304687-36.476562 32.910156-36.476562zm0 0" fill="#393f50"/><path d="m313.019531 343.863281c-16.839843-7.121093-21.507812-29.28125-32.070312-43.175781-12.886719-16.941406-34.777344-18.003906-49.339844-4.984375-3.464844 3.097656-8.722656 3.097656-12.1875 0-14.5625-13.019531-36.453125-11.957031-49.335937 4.984375-10.566407 13.894531-15.234376 36.054688-32.074219 43.175781-4.066407 1.722657-5.308594 6.933594-2.5625 10.394531 10.828125 13.632813 37.773437 36.164063 82.917969 3.808594 4.273437-3.0625 10.023437-3.0625 14.296874 0 45.148438 32.355469 72.089844 9.824219 82.917969-3.808594 2.746094-3.460937 1.507813-8.671874-2.5625-10.394531zm0 0" fill="#e7a25d"/><path d="m243.625 448.03125s42.847656 35.8125 42.847656-12.316406-42.847656-12.320313-42.847656-12.320313zm0 0" fill="#800000"/><path d="m207.40625 448.03125s-42.847656 35.8125-42.847656-12.316406 42.847656-12.320313 42.847656-12.320313zm0 0" fill="#800000"/><path d="m227.683594 415.566406h-4.335938c-11.128906 0-20.148437 9.019532-20.148437 20.148438s9.019531 20.148437 20.148437 20.148437h4.335938c11.128906 0 20.152344-9.019531 20.152344-20.148437-.003907-11.128906-9.023438-20.148438-20.152344-20.148438zm0 0" fill="#800000"/><path d="m143.726562 285.9375c4.144532 0 7.5-3.359375 7.5-7.5v-16.144531c0-4.144531-3.355468-7.5-7.5-7.5-4.140624 0-7.5 3.355469-7.5 7.5v16.144531c0 4.140625 3.359376 7.5 7.5 7.5zm0 0"/><path d="m317.300781 278.4375v-16.144531c0-4.144531-3.355469-7.5-7.5-7.5-4.140625 0-7.5 3.355469-7.5 7.5v16.144531c0 4.140625 3.359375 7.5 7.5 7.5 4.144531 0 7.5-3.359375 7.5-7.5zm0 0"/><path d="m451.03125 267.582031c0-24.867187-19.253906-45.304687-43.636719-47.226562-.761719-3.742188-1.644531-7.460938-2.640625-11.152344h23.261719c11.316406 0 20.519531-9.203125 20.519531-20.515625v-25.785156c0-11.3125-9.203125-20.515625-20.519531-20.515625h-39.964844s10.046875-97.582031 10.050781-97.644531c2.429688-23.585938-16.679687-44.742188-40.367187-44.742188h-36.96875c-4.140625 0-7.5 3.359375-7.5 7.5s3.359375 7.5 7.5 7.5h36.96875c14.976563 0 26.980469 13.328125 25.449219 28.207031l-4.003906 38.886719h-307.328126s-4-38.851562-4.003906-38.886719c-1.53125-14.898437 10.5-28.207031 25.449219-28.207031h197.46875c4.144531 0 7.5-3.359375 7.5-7.5s-3.355469-7.5-7.5-7.5c0 0-197.355469 0-197.46875 0-23.707031 0-42.796875 21.179688-40.371094 44.742188l10.054688 97.644531h-39.96875c-11.3125 0-20.515625 9.203125-20.515625 20.515625v25.785156c0 11.3125 9.203125 20.515625 20.515625 20.515625h23.265625c-.996094 3.691406-1.878906 7.410156-2.640625 11.152344-24.382813 1.921875-43.636719 22.359375-43.636719 47.226562 0 26.128907 21.257812 47.386719 47.386719 47.386719.542969 0 1.085937-.015625 1.628906-.035156 16.203125 49.664062 52.960937 91.171875 101.921875 112.667968-12.714844 12.210938-32.523438 37.550782-32.523438 76.898438 0 4.144531 3.359376 7.5 7.5 7.5h199.203126c4.140624 0 7.5-3.355469 7.5-7.5 0-39.347656-19.808594-64.6875-32.523438-76.894531 30.199219-13.261719 55.757812-34.132813 74.710938-59.835938l3.835937 3.835938c7.707031 7.707031 17.832031 11.558593 27.957031 11.558593s20.246094-3.851562 27.953125-11.558593c15.414063-15.414063 15.414063-40.496094 0-55.910157l-7.140625-7.144531c14.109375-8.214843 23.621094-23.5 23.621094-40.96875zm-433.535156-78.894531v-25.785156c0-3.042969 2.472656-5.515625 5.515625-5.515625h87.753906c4.144531 0 7.5-3.359375 7.5-7.5 0-4.144531-3.355469-7.5-7.5-7.5h-32.707031l-4.660156-45.292969h304.234374l-4.660156 45.292969h-232.207031c-4.140625 0-7.5 3.355469-7.5 7.5 0 4.140625 3.359375 7.5 7.5 7.5h287.25c3.042969 0 5.519531 2.472656 5.519531 5.515625v25.785156c0 3.042969-2.476562 5.515625-5.519531 5.515625h-405.003906c-3.039063 0-5.515625-2.472656-5.515625-5.515625zm27.234375 111.171875c-16.617188-1.355469-29.730469-15.3125-29.730469-32.277344 0-15.730469 11.273438-28.878906 26.164062-31.789062-.207031 1.75-.382812 3.503906-.539062 5.261719-1.738281 19.644531-.367188 39.597656 4.105469 58.804687zm136.363281 118.300781c6.035156.628906 11.378906 3.871094 16.316406 7.175782.019532.015624.246094.152343.242188.164062-1.292969 3.234375-1.953125 6.730469-1.953125 10.214844 0 3.476562.652343 6.972656 1.949219 10.199218-1.601563 1.070313-3.429688 2.210938-5.390626 3.28125-3.734374 2.035157-8.074218 4.148438-12.5 4.148438-1.90625 0-7.699218-.003906-7.699218-17.628906 0-4.601563.203125-9.742188 2.230468-13.964844 1.34375-2.796875 3.761719-3.910156 6.804688-3.589844zm35.707031 6.839844c1.933594-1.21875 4.183594-1.933594 6.546875-1.933594h4.34375c6.851563 0 12.644532 5.800782 12.644532 12.648438 0 6.851562-5.800782 12.640625-12.652344 12.648437h-4.335938c-6.765625 0-12.648437-5.925781-12.648437-12.648437 0-4.40625 2.492187-8.4375 6.101562-10.714844zm38.132813-.507812c4.964844-3.144532 10.414062-6.441407 16.488281-6.398438 7.523437.058594 7.550781 12.605469 7.550781 17.621094 0 7.644531-1.207031 11.835937-2.285156 14.058594-1.222656 2.523437-3.640625 3.75-6.378906 3.527343-4.871094-.398437-9.367188-2.761719-13.5-5.214843-1.238282-.738282-2.386719-1.476563-3.421875-2.175782.742187-1.851562 1.265625-3.773437 1.585937-5.742187.800782-4.914063.257813-10.042969-1.59375-14.667969.453125-.304688 1.5-.976562 1.554688-1.007812zm-97.582032 17.945312c.011719.121094 1.367188 9.175781 3.179688 13.226562 3.269531 7.304688 9.664062 12.132813 17.734375 12.632813.070313.003906.144531.011719.214844.011719v28.691406h-44.785157c1.988282-26.066406 14.058594-44.117188 23.65625-54.5625zm36.132813 22.796875c5.1875-2.144531 9.890625-5.023437 13.308594-7.378906 4.71875 3.558593 10.652343 5.507812 16.554687 5.507812h4.335938c5.886718 0 11.847656-1.957031 16.554687-5.507812 3.417969 2.351562 8.121094 5.230469 13.308594 7.378906v31.765625h-64.0625zm123.84375 31.765625h-44.78125v-28.691406h.023437.035157c.390625-.023438.792969-.054688 1.203125-.097656.023437 0 .042968-.003907.066406-.007813 5.652344-.605469 12.679688-3.433594 16.75-12.816406 1.574219-3.5625 2.582031-7.820313 3.046875-12.835938 9.585937 10.507813 21.652344 28.601563 23.65625 54.449219zm-26.96875-81.550781c-4.78125-10.371094-13.28125-12.363281-19.085937-12.363281-9.234376 0-18.265626 4.589843-25.753907 9.621093-.03125.023438-.902343.605469-1.28125.863281-.148437-.109374-.308593-.207031-.457031-.316406-4.652344-3.359375-10.359375-5.1875-16.097656-5.1875h-4.335938c-5.859375 0-11.835937 1.960938-16.554687 5.503906-.140625.109376-3.402344-2.21875-3.6875-2.394531-6.933594-4.257812-14.992188-8.089843-23.347657-8.089843-5.804687 0-14.304687 1.992187-19.085937 12.367187-57.027344-23.441406-96.84375-76.113281-104.453125-136.6875-2.917969-23.230469-.992188-47.109375 5.636719-69.5625h327.320312c2.265625 7.671875 3.976563 15.488281 5.136719 23.398437 5.492188 37.339844-1.761719 76.265626-20.488281 109.210938-.453125.796875-.914063 1.589844-1.378907 2.382812l-28.335937-28.335937c13.777344-10.417969 22.699219-26.929687 22.699219-45.492187 0-31.433594-25.574219-57.003907-57.007813-57.003907-31.429687 0-57.003906 25.570313-57.003906 57.003907 0 3.03125.253906 6.035156.726563 8.996093-9.789063.167969-19.320313 3.964844-26.910157 10.75-.382812.34375-.808593.414063-1.097656.414063s-.710937-.070313-1.09375-.414063c-7.765625-6.941406-17.5625-10.765625-27.589844-10.765625-12.667969 0-24.59375 6.125-32.714843 16.804688-3.96875 5.214844-7.078126 11.265625-10.085938 17.117187-5.292969 10.300781-10.292969 20.03125-18.941406 23.691407-8.527344 3.605468-11.246094 14.738281-5.511719 21.960937 6.894531 8.6875 21.953125 23.257813 45.324219 23.257813 15.0625 0 31.15625-6.0625 47.835937-18.015626 1.628907-1.167968 3.925781-1.167968 5.558594 0 16.675781 11.953126 32.769531 18.015626 47.835937 18.015626 23.367188 0 38.425782-14.570313 45.324219-23.257813 5.738281-7.226563 3-18.359375-5.511719-21.960937-4.480468-1.894532-7.976562-5.425782-11.046874-9.8125 1.625.136718 3.257812.222656 4.902343.222656 7.300781 0 14.28125-1.394532 20.703125-3.90625l33.570313 33.574218c-18.308594 25.519532-43.613281 46.039063-73.714844 58.410157zm-29.042969-120.023438c11.382813 3.507813 17.273438 14.835938 22.34375 24.695313 5.84375 11.375 12.449219 24.226562 25.449219 30.214844-6.453125 7.855468-17.265625 16.839843-32.980469 16.839843-11.867187 0-25.019531-5.117187-39.097656-15.203125-6.8125-4.882812-16.222656-4.882812-23.035156 0-14.078125 10.085938-27.230469 15.203125-39.097656 15.203125-15.714844 0-26.527344-8.984375-32.976563-16.839843 13-5.988282 19.605469-18.839844 25.449219-30.214844 6.277344-12.210938 13.824218-25.773438 29.457031-25.773438 6.332031 0 12.582031 2.464844 17.59375 6.949219 6.21875 5.558594 15.972656 5.550781 22.183594 0 6.671875-5.960937 16.066406-8.53125 24.710937-5.871094zm33.863282 14.320313c-.039063-.074219-.074219-.140625-.113282-.210938-5.933594-11.253906-13.367187-21.953125-25.488281-27.0625-1.183594-3.921875-1.78125-7.980468-1.78125-12.105468 0-23.164063 18.84375-42.007813 42.003906-42.007813 23.164063 0 42.003907 18.84375 42.003907 42.007813 0 23.160156-18.839844 42.003906-42.003907 42.003906-5.039062 0-9.945312-.882813-14.621093-2.625zm128.765624 16.554687c9.566407 9.566407 9.566407 25.132813 0 34.695313-9.566406 9.566406-25.128906 9.566406-34.695312 0l-5.886719-5.886719c7.757813-12.546875 14.039063-26.03125 18.652344-40.175781 3.304687.117187 6.609375-.121094 9.863281-.695313zm-17.644531-26.441406c1.789063-7.6875 3.070313-15.496094 3.867188-23.375 1.183593-11.769531 1.273437-23.644531.238281-35.429687-.15625-1.757813-.332031-3.511719-.539062-5.261719 14.890624 2.910156 26.164062 16.058593 26.164062 31.785156 0 16.96875-13.113281 30.925781-29.730469 32.28125zm0 0"/></svg>