<?xml version="1.0" encoding="iso-8859-1"?>
<!-- Generator: Adobe Illustrator 19.0.0, SVG Export Plug-In . SVG Version: 6.00 Build 0)  -->
<svg version="1.1" id="Capa_1" xmlns="http://www.w3.org/2000/svg" xmlns:xlink="http://www.w3.org/1999/xlink" x="0px" y="0px"
	 viewBox="0 0 468.293 468.293" style="enable-background:new 0 0 468.293 468.293;" xml:space="preserve">
<path style="fill:#DC8744;" d="M261,468.293h-53.708c-6.897,0-12.488-5.591-12.488-12.488v-39.412h78.684v39.412
	C273.488,462.702,267.897,468.293,261,468.293z"/>
<path style="fill:#64798A;" d="M274.336,411.401h-80.379v-42.839h80.379V411.401z M205.353,400.296h57.587v-26.183h-57.587V400.296z
	"/>
<path style="fill:#E56353;" d="M216.537,0.98C145.341,8.89,88.332,66.618,81.189,137.895c-3.115,31.09,3.05,60.515,16.05,85.859
	c24.634,48.022,88.21,100.219,96.714,153.977h80.392c8.358-52.595,69.731-104.349,94.935-150.625
	c11.871-21.797,18.619-46.783,18.619-73.354C387.9,63.037,309.337-9.33,216.537,0.98z"/>
<path style="fill:#27A2DB;" d="M222.01,0.98c-49.066,7.909-88.355,65.638-93.277,136.915c-2.147,31.09,2.102,60.515,11.061,85.859
	c16.977,48.022,60.792,100.219,66.653,153.977h55.404c5.76-52.595,48.056-104.349,65.426-150.625
	c8.181-21.797,12.832-46.783,12.832-73.354C340.108,63.037,285.965-9.33,222.01,0.98z"/>
<path style="fill:#E56353;" d="M228.613,0.98c-22.371,7.909-40.285,65.638-42.529,136.915c-0.979,31.09,0.958,60.515,5.043,85.859
	c7.74,48.022,27.718,100.219,30.39,153.977h25.261c2.626-52.595,21.911-104.349,29.831-150.625
	c3.73-21.797,5.851-46.783,5.851-73.354C282.459,63.037,257.773-9.33,228.613,0.98z"/>
<path style="fill:#27A2DB;" d="M278.21,420.47h-88.127c-5.571,0-10.087-4.516-10.087-10.087l0,0c0-5.571,4.516-10.087,10.087-10.087
	h88.127c5.571,0,10.087,4.516,10.087,10.087l0,0C288.297,415.954,283.781,420.47,278.21,420.47z"/>
<g>
</g>
<g>
</g>
<g>
</g>
<g>
</g>
<g>
</g>
<g>
</g>
<g>
</g>
<g>
</g>
<g>
</g>
<g>
</g>
<g>
</g>
<g>
</g>
<g>
</g>
<g>
</g>
<g>
</g>
</svg>
