<?xml version="1.0" encoding="iso-8859-1"?>
<!-- Generator: Adobe Illustrator 19.0.0, SVG Export Plug-In . SVG Version: 6.00 Build 0)  -->
<svg version="1.1" id="Layer_1" xmlns="http://www.w3.org/2000/svg" xmlns:xlink="http://www.w3.org/1999/xlink" x="0px" y="0px"
	 viewBox="0 0 512 512" style="enable-background:new 0 0 512 512;" xml:space="preserve">
<g>
	<polygon style="fill:#C7CFE2;" points="238.345,459.034 220.69,459.034 211.862,406.069 229.517,406.069 	"/>
	<polygon style="fill:#C7CFE2;" points="291.31,459.034 273.655,459.034 282.483,406.069 300.138,406.069 	"/>
</g>
<path style="fill:#9B735A;" d="M273.655,512h-35.31c-9.751,0-17.655-7.904-17.655-17.655v-35.31h70.621v35.31
	C291.31,504.095,283.405,512,273.655,512z"/>
<path style="fill:#8C5F50;" d="M247.172,494.345v-35.31H220.69v35.31c0,9.75,7.905,17.655,17.655,17.655h26.483
	C255.076,512,247.172,504.095,247.172,494.345z"/>
<path style="fill:#FFDC64;" d="M300.138,406.069c46.998-60.134,114.759-161.048,114.759-247.172C414.897,71.14,343.756,0,256,0
	S97.103,71.14,97.103,158.897c0,86.124,67.761,187.039,114.759,247.172H300.138z"/>
<g>
	<path style="fill:#FFC850;" d="M97.103,158.897c0,86.124,67.761,187.039,114.759,247.172h31.878
		c-13.056-60.134-31.878-161.048-31.878-247.172C211.862,71.14,231.624,0,256,0C168.244,0,97.103,71.14,97.103,158.897z"/>
	<path style="fill:#FFC850;" d="M132.414,156.979c0,79.404,36.852,170.507,72.111,239.556c2.482,3.255,4.951,6.482,7.337,9.534
		h17.564c-36.797-68.807-79.357-166.258-79.357-249.09c0-72.258,33.158-133.102,78.08-151.29
		c-16.569,31.858-25.114,91.821-25.114,151.29c0,83.047,15.766,179.392,29.886,249.09h18.028
		c-14.145-69.129-30.259-166.083-30.259-249.09C220.69,55.41,244.017,0,256,0c-27.352,0-53.085,6.92-75.558,19.091
		C151.286,51.064,132.414,100.91,132.414,156.979z"/>
	<path style="fill:#FFC850;" d="M331.558,19.091C309.085,6.92,283.351,0,256,0c11.982,0,35.31,55.41,35.31,156.979
		c0,83.007-16.115,179.962-30.26,249.09h18.028c14.121-69.698,29.887-166.044,29.887-249.09c0-59.469-8.546-119.432-25.115-151.29
		c44.921,18.188,78.08,79.031,78.08,151.29c0,82.834-42.56,180.284-79.357,249.09h17.564c2.386-3.052,4.855-6.279,7.337-9.534
		c35.26-69.049,72.111-160.152,72.111-239.556C379.586,100.91,360.713,51.064,331.558,19.091z"/>
</g>
<path style="fill:#E1A546;" d="M132.414,156.979c0,79.404,36.852,170.507,72.111,239.556c2.482,3.255,4.951,6.482,7.337,9.534
	h17.564c-36.797-68.807-79.357-166.258-79.357-249.09c0-72.258,33.158-133.102,78.08-151.29
	c-16.569,31.858-25.114,91.821-25.114,151.29c0,83.047,15.766,179.392,29.886,249.09h18.028
	c-14.145-69.129-30.259-166.083-30.259-249.09C220.69,55.41,244.017,0,256,0c-27.352,0-53.085,6.92-75.558,19.091
	C151.286,51.064,132.414,100.91,132.414,156.979z"/>
<path style="fill:#FFC850;" d="M331.558,19.091C309.085,6.92,283.351,0,256,0c11.982,0,35.31,55.41,35.31,156.979
	c0,83.007-16.115,179.962-30.26,249.09h18.028c14.121-69.698,29.887-166.044,29.887-249.09c0-59.469-8.546-119.432-25.115-151.29
	c44.921,18.188,78.08,79.031,78.08,151.29c0,82.834-42.56,180.284-79.357,249.09h17.564c2.386-3.052,4.855-6.279,7.337-9.534
	c35.26-69.049,72.111-160.152,72.111-239.556C379.586,100.91,360.713,51.064,331.558,19.091z"/>
<path style="fill:#FF507D;" d="M300.138,406.069c42.52-54.404,102.035-142.188,112.99-222.2c1.153-8.426,0.428-7.637-1.876-0.666
	c-3.949,11.949-10.727,19.832-18.424,19.832c-5.854,0-11.372-5.023-15.322-12.461c-0.22-0.414-16.963-0.705-17.781,0.247
	c-6.305,7.341-14.979,12.214-24.276,12.214c-10.833,0-20.65-6.601-27.127-16.2c-0.52-0.769-17.098-1.624-17.636-0.939
	c-8.083,10.284-20.591,17.139-34.685,17.139c-13.917,0-26.594-7.074-34.684-17.138c-0.649-0.807-12.418-6.283-15.893-0.968
	c-7.174,10.975-17.171,18.105-28.872,18.105c-10.503,0-19.935-5.731-26.402-14.829c-3.961-5.572-12.199-4.577-15.204,1.564
	c-4.007,8.185-9.593,13.266-15.773,13.266c-7.416,0-13.978-7.316-17.98-18.537c-0.076-0.215-2.306-0.524-2.271-0.268
	c11.084,79.915,70.484,167.517,112.94,221.839H300.138z"/>
<g>
	<path style="fill:#D23C69;" d="M243.738,406.069c-11.957-55.074-28.75-144.355-31.492-225.152c0,0-3.761-0.885-8.568,5.919
		c-6.782,9.599-16.157,16.199-27.126,16.199c-10.503,0-19.935-5.731-26.402-14.829c-3.961-5.572-12.199-4.577-15.204,1.564
		c-4.007,8.185-9.593,13.266-15.773,13.266c-7.559,0-14.229-7.599-18.207-19.186c-2.436-7.097-3.182-7.541-1.91,1.332
		c11.422,79.658,70.519,166.781,112.807,220.888H243.738z"/>
	<path style="fill:#D23C69;" d="M377.505,190.573c-4.147-8.024-11.015-7.795-17.781,0.247
		c-9.096,74.495-45.263,155.622-77.15,215.249h17.564c2.386-3.052,4.855-6.279,7.337-9.534
		C337.849,337.05,369.344,261.213,377.505,190.573z"/>
	<path style="fill:#D23C69;" d="M290.684,185.897c-3.05,75.872-17.102,158.933-29.633,220.172h18.028
		c12.457-61.485,26.177-143.697,29.241-219.233C303.286,179.207,296.519,178.413,290.684,185.897z"/>
</g>
<g>
	<path style="fill:#BE2850;" d="M203.679,186.835c3.064,75.537,16.785,157.748,29.241,219.233h18.028
		c-12.531-61.239-26.583-144.3-29.633-220.172C215.48,178.413,208.714,179.207,203.679,186.835z"/>
	<path style="fill:#BE2850;" d="M134.495,190.573c8.161,70.639,39.655,146.477,70.03,205.962c2.482,3.255,4.951,6.482,7.337,9.534
		h17.564c-31.887-59.627-68.055-140.754-77.15-215.249C146.78,181.813,138.642,182.549,134.495,190.573z"/>
</g>
<g>
	<polygon style="fill:#AFB9D2;" points="229.517,406.069 211.862,406.069 214.804,423.724 232.459,423.724 	"/>
	<polygon style="fill:#AFB9D2;" points="279.54,423.724 297.195,423.724 300.138,406.069 282.483,406.069 	"/>
</g>
<g>
</g>
<g>
</g>
<g>
</g>
<g>
</g>
<g>
</g>
<g>
</g>
<g>
</g>
<g>
</g>
<g>
</g>
<g>
</g>
<g>
</g>
<g>
</g>
<g>
</g>
<g>
</g>
<g>
</g>
</svg>
