<svg id="Capa_1" enable-background="new 0 0 510 510" height="512" viewBox="0 0 510 510" width="512" xmlns="http://www.w3.org/2000/svg" xmlns:xlink="http://www.w3.org/1999/xlink"><linearGradient id="lg1"><stop offset="0" stop-color="#4f4a72"/><stop offset="1" stop-color="#3b395f"/></linearGradient><linearGradient id="SVGID_1_" gradientUnits="userSpaceOnUse" x1="207.539" x2="302.461" xlink:href="#lg1" y1="422.068" y2="422.068"/><linearGradient id="lg2"><stop offset="0" stop-color="#a34a9e"/><stop offset=".1962" stop-color="#a04d90"/><stop offset=".5665" stop-color="#97566b"/><stop offset="1" stop-color="#8c6239"/></linearGradient><linearGradient id="SVGID_2_" gradientUnits="userSpaceOnUse" x1="254.336" x2="263.244" xlink:href="#lg2" y1="433.34" y2="509.943"/><linearGradient id="lg3"><stop offset="0" stop-color="#3b395f" stop-opacity="0"/><stop offset="1" stop-color="#3b395f"/></linearGradient><linearGradient id="SVGID_3_" gradientUnits="userSpaceOnUse" x1="255.55" x2="257.737" xlink:href="#lg3" y1="497.208" y2="530.886"/><linearGradient id="SVGID_4_" gradientUnits="userSpaceOnUse" x1="255.569" x2="257.842" xlink:href="#lg3" y1="476.243" y2="511.245"/><linearGradient id="SVGID_5_" gradientUnits="userSpaceOnUse" x1="255.567" x2="257.866" xlink:href="#lg3" y1="454.965" y2="490.365"/><linearGradient id="SVGID_6_" gradientUnits="userSpaceOnUse" x1="248.027" x2="295.806" xlink:href="#lg3" y1="443.805" y2="595.006"/><linearGradient id="SVGID_7_" gradientUnits="userSpaceOnUse" x1="247.859" x2="288.973" xlink:href="#lg3" y1="448.814" y2="578.923"/><linearGradient id="SVGID_8_" gradientUnits="userSpaceOnUse" x1="261.017" x2="241.37" xlink:href="#lg3" y1="466.951" y2="377.837"/><linearGradient id="SVGID_9_" gradientUnits="userSpaceOnUse" x1="253.162" x2="256.765" xlink:href="#lg2" y1="418.794" y2="449.782"/><linearGradient id="SVGID_10_" gradientUnits="userSpaceOnUse" x1="211.503" x2="298.497" xlink:href="#lg1" y1="394.71" y2="394.71"/><linearGradient id="SVGID_11_" gradientUnits="userSpaceOnUse" x1="78.159" x2="431.841" y1="210.695" y2="210.695"><stop offset="0" stop-color="#3fa9f5"/><stop offset="1" stop-color="#666ad6"/></linearGradient><linearGradient id="SVGID_12_" gradientUnits="userSpaceOnUse" x1="122.329" x2="387.671" y1="203.534" y2="203.534"><stop offset="0" stop-color="#c4f8b6"/><stop offset="1" stop-color="#3b8eac"/></linearGradient><linearGradient id="SVGID_13_" gradientUnits="userSpaceOnUse" x1="172.372" x2="337.629" y1="199.684" y2="199.684"><stop offset="0" stop-color="#ffe548"/><stop offset=".1758" stop-color="#ffde50"/><stop offset=".4446" stop-color="#ffca65"/><stop offset=".7709" stop-color="#ffaa87"/><stop offset="1" stop-color="#ff90a4"/></linearGradient><linearGradient id="SVGID_14_" gradientUnits="userSpaceOnUse" x1="220.181" x2="289.819" y1="196.022" y2="196.022"><stop offset="0" stop-color="#ff4974"/><stop offset=".2231" stop-color="#fb3f6c"/><stop offset=".6075" stop-color="#f12357"/><stop offset="1" stop-color="#e4003d"/></linearGradient><linearGradient id="SVGID_15_" gradientUnits="userSpaceOnUse" x1="252.121" x2="262.274" xlink:href="#lg1" y1="361.824" y2="397.991"/><path d="m302.461 437.651h-94.922v-15.091c0-8.865 7.212-16.077 16.076-16.077h62.769c8.865 0 16.077 7.212 16.077 16.077zm-88.828-6.094h82.734v-8.997c0-5.505-4.478-9.983-9.983-9.983h-62.769c-5.504 0-9.982 4.478-9.982 9.983z" fill="url(#SVGID_1_)"/><path d="m285.532 510h-61.064c-6.549 0-12.052-4.921-12.781-11.429l-6.792-60.632h100.21l-6.792 60.632c-.729 6.508-6.232 11.429-12.781 11.429z" fill="url(#SVGID_2_)"/><path d="m298.313 498.571 1.101-9.829h-88.828l1.101 9.829c.729 6.508 6.232 11.429 12.781 11.429h61.064c6.549 0 12.052-4.921 12.781-11.429z" fill="url(#SVGID_3_)"/><path d="m299.414 488.742 2.381-21.258h-93.59l2.381 21.258z" fill="url(#SVGID_4_)"/><path d="m301.795 467.484 2.382-21.257h-98.354l2.382 21.257z" fill="url(#SVGID_5_)"/><path d="m281.643 510h-53.286l-5.116-72.061h63.518z" fill="url(#SVGID_6_)"/><path d="m263.415 510h-16.83l-1.616-72.061h20.062z" fill="url(#SVGID_7_)"/><path d="m204.895 437.939.783 6.989 65.072 65.072h14.782c6.549 0 12.052-4.921 12.781-11.429l6.792-60.632z" fill="url(#SVGID_8_)"/><path d="m300.035 445.781h-90.07c-6.173 0-11.177-5.004-11.177-11.177 0-6.173 5.004-11.177 11.177-11.177h90.07c6.173 0 11.177 5.004 11.177 11.177 0 6.173-5.004 11.177-11.177 11.177z" fill="url(#SVGID_9_)"/><path d="m290.26 412.578h-70.52l-8.238-35.736h86.994zm-65.366-6.094h60.212l6.186-23.549h-72.585z" fill="url(#SVGID_10_)"/><path d="m282.631 30.949c-18.366 2.091-36.897 2.091-55.263 0-49.736-5.662-149.209-2.368-149.209 114.588 0 126.722 96.362 154.58 131.802 230.012 4.744 10.098 14.953 16.495 26.111 16.495h18.928 18.929c11.157 0 21.366-6.397 26.111-16.495 35.44-75.432 131.802-103.289 131.802-230.012-.001-116.956-99.474-120.251-149.211-114.588z" fill="url(#SVGID_11_)"/><path d="m275.73 16.689c-13.742 2.168-27.718 2.168-41.46 0-37.314-5.886-111.941-2.461-111.941 119.113 0 130.33 70.768 160.058 98.02 236.617 4.167 11.705 15.113 19.624 27.538 19.624h7.113 7.113c12.425 0 23.371-7.919 27.538-19.624 27.252-76.558 98.02-106.287 98.02-236.617 0-121.574-74.627-124.999-111.941-119.113z" fill="url(#SVGID_12_)"/><path d="m267.911 9.025c-8.48 2.192-17.341 2.192-25.821 0-23.239-6.006-69.718-2.512-69.718 121.545 0 136.112 46.168 164.694 62.197 247.03 1.634 8.396 9.016 14.443 17.57 14.443h2.861 2.862c8.553 0 15.935-6.048 17.57-14.443 16.029-82.336 62.197-110.918 62.197-247.03 0-124.057-46.479-127.552-69.718-121.545z" fill="url(#SVGID_13_)"/><path d="m220.181 102.891c0 155.062 20.646 183.927 26.785 281.588.267 4.248 3.777 7.563 8.034 7.563 4.256 0 7.767-3.315 8.034-7.563 6.139-97.661 26.785-126.526 26.785-281.588 0-137.188-69.638-137.188-69.638 0z" fill="url(#SVGID_14_)"/><path d="m255 366.229c-17.59 0-33.786 2.184-46.729 5.849.577 1.145 1.141 2.301 1.689 3.469 4.744 10.098 14.953 16.495 26.111 16.495h11.816 4.251 2.862 2.862 4.251 11.816c11.157 0 21.366-6.397 26.111-16.495.549-1.168 1.112-2.324 1.689-3.469-12.943-3.664-29.139-5.849-46.729-5.849z" fill="url(#SVGID_15_)"/></svg>