<?xml version="1.0" encoding="iso-8859-1"?>
<!-- Generator: Adobe Illustrator 19.0.0, SVG Export Plug-In . SVG Version: 6.00 Build 0)  -->
<svg version="1.1" id="Layer_1" xmlns="http://www.w3.org/2000/svg" xmlns:xlink="http://www.w3.org/1999/xlink" x="0px" y="0px"
	 viewBox="0 0 512 512" style="enable-background:new 0 0 512 512;" xml:space="preserve">
<g>
	<polygon style="fill:#40596B;" points="215.467,428.8 203.733,384 190.933,386.133 202.667,430.933 	"/>
	<polygon style="fill:#40596B;" points="296.533,428.8 308.267,384 321.067,386.133 309.333,430.933 	"/>
</g>
<path style="fill:#84DBFF;" d="M192,391.467h128c60.8-80,135.467-113.067,135.467-192C455.467,89.6,365.867,0,256,0
	S56.533,89.6,56.533,199.467C56.533,279.467,130.133,311.467,192,391.467z"/>
<path style="fill:#54C0EB;" d="M295.467,391.467c38.4-80,84.267-113.067,84.267-192C380.8,89.6,324.267,0,256,0
	S131.2,89.6,131.2,199.467c0,78.933,45.867,112,84.267,192H295.467z"/>
<path style="fill:#84DBFF;" d="M272,391.467c16-80,35.2-113.067,35.2-192C307.2,89.6,284.8,0,256,0s-51.2,89.6-51.2,199.467
	c0,78.933,19.2,112,35.2,192H272z"/>
<path style="fill:#FF7058;" d="M309.333,423.467H202.667c-6.4,0-10.667,4.267-10.667,10.667v67.2c0,6.4,4.267,10.667,10.667,10.667
	h106.667c6.4,0,10.667-4.267,10.667-10.667v-67.2C320,427.733,314.667,423.467,309.333,423.467z"/>
<g>
</g>
<g>
</g>
<g>
</g>
<g>
</g>
<g>
</g>
<g>
</g>
<g>
</g>
<g>
</g>
<g>
</g>
<g>
</g>
<g>
</g>
<g>
</g>
<g>
</g>
<g>
</g>
<g>
</g>
</svg>
