<?xml version="1.0" encoding="iso-8859-1"?>
<!-- Generator: Adobe Illustrator 19.0.0, SVG Export Plug-In . SVG Version: 6.00 Build 0)  -->
<svg version="1.1" id="Capa_1" xmlns="http://www.w3.org/2000/svg" xmlns:xlink="http://www.w3.org/1999/xlink" x="0px" y="0px"
	 viewBox="0 0 512.001 512.001" style="enable-background:new 0 0 512.001 512.001;" xml:space="preserve">
<g>
	<path style="fill:#6B888D;" d="M306.189,421.215c-4.142,0-7.5-3.357-7.5-7.5v-37.137c0-4.142,3.358-7.5,7.5-7.5s7.5,3.358,7.5,7.5
		v37.137C313.689,417.857,310.331,421.215,306.189,421.215z"/>
	<path style="fill:#6B888D;" d="M225.601,421.215c-4.142,0-7.5-3.357-7.5-7.5v-37.137c0-4.142,3.358-7.5,7.5-7.5s7.5,3.358,7.5,7.5
		v37.137C233.101,417.857,229.743,421.215,225.601,421.215z"/>
</g>
<path style="fill:#CA8B69;" d="M290.433,512.001h-48.452c-21.46,0-38.857-17.397-38.857-38.857v-50.125
	c0-5.143,4.169-9.313,9.313-9.313h107.539c5.143,0,9.313,4.17,9.313,9.313v50.125C329.29,494.604,311.893,512.001,290.433,512.001z"
	/>
<path style="fill:#B27157;" d="M329.288,423.317v48.597c0,22.137-17.939,40.086-40.076,40.086H247.64
	c22.137,0,40.087-17.949,40.087-40.086v-48.597c0-5.313-4.302-9.614-9.604-9.614h41.562
	C324.986,413.703,329.288,418.005,329.288,423.317z"/>
<path style="fill:#FC3A4D;" d="M436.842,170.636c0-94.616-77.008-171.245-171.766-170.632C171.416,0.612,96.05,76.088,95.574,169.75
	c-0.293,57.609,27.968,108.629,71.448,139.739c17.608,12.599,27.925,33.029,27.925,54.68v0.003c0,6.201,5.027,11.227,11.227,11.227
	H326.24c6.201,0,11.227-5.027,11.227-11.227l0,0c0-21.741,10.468-42.152,28.131-54.829
	C408.738,278.378,436.842,227.792,436.842,170.636z"/>
<path style="fill:#ED1535;" d="M436.838,170.636c0,57.159-28.1,107.747-71.24,138.704c-8.83,6.334-15.866,14.607-20.683,24.015
	c-4.828,9.408-7.448,19.95-7.448,30.813c0,6.2-5.024,11.234-11.223,11.234h-34.413c6.2,0,11.223-5.034,11.223-11.234
	c0-10.862,2.62-21.405,7.448-30.813c4.817-9.408,11.853-17.681,20.683-24.015c43.14-30.957,71.25-81.545,71.25-138.704
	c0-88.436-67.289-161.151-153.445-169.775c5.292-0.536,10.656-0.825,16.082-0.856C359.832-0.604,436.838,76.021,436.838,170.636z"/>
<path style="fill:#E7EBEC;" d="M240.315,375.399c-10.35-44.47-17.036-114.95-17.036-194.29c0-70.075,5.216-133.238,13.565-177.673
	c0,0,18.615-5.505,58.547-0.946c8.459,44.481,13.751,108.046,13.751,178.615c0,79.348-6.695,149.824-17.041,194.295L240.315,375.399
	z"/>
<path style="fill:#CDD7D9;" d="M309.141,181.106c0,79.348-6.695,149.824-17.041,194.295h-25.82
	c10.347-44.471,17.042-114.947,17.042-194.295c0-70.569-5.292-134.134-13.751-178.615c-5.839-0.66-11.223-1.114-16.165-1.403
	c9.614-0.66,23.52-0.701,41.985,1.403C303.849,46.972,309.141,110.537,309.141,181.106z"/>
<path style="fill:#A6E6FD;" d="M469.499,230.871c0-0.011,0.001-0.021,0.001-0.032c0-19.595-15.885-35.48-35.48-35.48
	s-35.48,15.885-35.48,35.48c0,0.011,0.001,0.021,0.001,0.032c-17.882,0.668-32.304,15.492-32.304,33.529l0,0
	c0,18.459,15.103,33.562,33.561,33.562h68.443c18.459,0,33.562-15.103,33.562-33.562l0,0
	C501.803,246.363,487.38,231.539,469.499,230.871z"/>
<path style="fill:#8DD0E2;" d="M501.801,264.398c0,18.465-15.103,33.568-33.555,33.568h-68.444c-9.233,0-17.625-3.776-23.709-9.86
	c-4.843-4.843-8.219-11.154-9.393-18.185c2.989,0.894,6.137,1.361,9.406,1.361h68.444c18.465,0,33.568-15.103,33.568-33.568
	c0-1.881-0.16-3.722-0.467-5.51c5.657,1.654,10.7,4.776,14.703,8.913C498.199,247.161,501.801,255.379,501.801,264.398z"/>
<path style="fill:#A6E6FD;" d="M113.459,109.834c0-0.011,0.001-0.021,0.001-0.032c0-19.595-15.885-35.48-35.48-35.48
	S42.5,90.207,42.5,109.802c0,0.011,0.001,0.021,0.001,0.032c-17.882,0.668-32.304,15.492-32.304,33.529l0,0
	c0,18.459,15.103,33.561,33.562,33.561h68.443c18.459,0,33.562-15.103,33.562-33.561l0,0
	C145.763,125.326,131.34,110.502,113.459,109.834z"/>
<path style="fill:#8DD0E2;" d="M145.761,143.362c0,18.465-15.103,33.568-33.555,33.568H43.762c-9.233,0-17.625-3.776-23.709-9.86
	c-4.843-4.843-8.219-11.154-9.393-18.185c2.989,0.894,6.137,1.361,9.406,1.361H88.51c18.465,0,33.568-15.103,33.568-33.568
	c0-1.881-0.16-3.722-0.467-5.51c5.657,1.654,10.7,4.776,14.703,8.912C142.159,126.124,145.761,134.343,145.761,143.362z"/>
<g>
</g>
<g>
</g>
<g>
</g>
<g>
</g>
<g>
</g>
<g>
</g>
<g>
</g>
<g>
</g>
<g>
</g>
<g>
</g>
<g>
</g>
<g>
</g>
<g>
</g>
<g>
</g>
<g>
</g>
</svg>
