<svg enable-background="new 0 0 100 100" height="512" viewBox="0 0 100 100" width="512" xmlns="http://www.w3.org/2000/svg"><path d="m90.5853958 31.0314388h-20.629776c.0801697-2.0420628 1.75634-3.6742058 3.8180695-3.6742058h.3493881c0-1.6621513 1.3474426-3.0095711 3.0095978-3.0095711.5257721 0 1.0196152.1354866 1.449707.3724556.8296738-1.6276321 2.5174332-2.744648 4.4696045-2.744648 2.7714691 0 5.0181961 2.2467251 5.0181961 5.0182209 0 .1968575-.0142365.3901482-.0362778.581089 1.4457093.5058633 2.4879074 1.854067 2.5514908 3.4566594z" fill="#ececec"/><g fill="#e6e7e8"><path d="m62.4636269 31.9388561h24.764019c-.0962296-2.4512959-2.1083069-4.4105244-4.5832138-4.4105244h-.4194031c0-1.9952507-1.6174774-3.6126957-3.6127319-3.6126957-.631134 0-1.2239456.1626396-1.7402344.4470959-.9959335-1.9538116-3.0219269-3.2946796-5.3653107-3.2946796-3.3268814 0-6.0238571 2.6969738-6.0238571 6.0238838 0 .2363071.0170898.4683342.0435486.6975403-1.7354355.6072388-2.9864884 2.2256241-3.0628166 4.1493797z"/><path d="m62.4636269 31.9388561h24.764019c-.0962296-2.4512959-2.1083069-4.4105244-4.5832138-4.4105244h-.4194031c0-1.9952507-1.6174774-3.6126957-3.6127319-3.6126957-.631134 0-1.2239456.1626396-1.7402344.4470959-.9959335-1.9538116-3.0219269-3.2946796-5.3653107-3.2946796-3.3268814 0-6.0238571 2.6969738-6.0238571 6.0238838 0 .2363071.0170898.4683342.0435486.6975403-1.7354355.6072388-2.9864884 2.2256241-3.0628166 4.1493797z"/><path d="m42.3483734 80.09021c-.3691216 0-.7098198-.2407837-.820179-.6128311l-2.2113876-7.4543457c-.1346092-.4531479.1237373-.9297028.5768814-1.0638962.4535637-.135025.9297028.1233215 1.064312.577301l2.6847649 8.9038239c.1346054.4535599-.5971146-.5201874-1.0502625-.3860016-.0815163.0242462-.1634483.0359497-.2441292.0359497z"/><path d="m52.9371223 80.09021c-.0806808 0-.1626129-.0117035-.2441292-.0359497-.4531479-.1341858-1.0682449.4895172-.9336395.0359497l2.5681419-8.553772c.1341896-.4535599.608654-.712738 1.064312-.577301.4531441.1341934.7114906.6107483.5768814 1.0638962l-2.2113876 7.4543457c-.1103592.3716278-.4510574.6128311-.820179.6128311z"/></g><path d="m38.5355377 70.3684692h18.2146645c9.355732-11.0209846 21.9798698-16.3336296 21.9798698-34.2722816 0-17.1686421-13.9185333-31.0961876-31.0871773-31.0961876s-31.0872306 13.9275455-31.0872306 31.0961876c0 17.938652 12.6241397 23.251297 21.9798736 34.2722816z" fill="#dad7dc"/><path d="m41.3021126 70.3684692h12.6815109c6.5136986-11.0209846 15.3029442-16.3336296 15.3029442-34.2722816 0-17.1686421-9.6904335-31.0961876-21.6436806-31.0961876s-21.6437187 13.9275455-21.6437187 31.0961876c0 17.938652 8.7892456 23.251297 15.3029442 34.2722816z" fill="#509fd7"/><path d="m43.7601471 70.3684692h7.7654419c3.9886208-11.0209846 9.3706589-16.3336296 9.3706589-34.2722816 0-17.1686421-5.9338761-31.0961876-13.2533684-31.0961876s-13.2533913 13.9275455-13.2533913 31.0961876c0 17.938652 5.3820381 23.251297 9.3706589 34.2722816z" fill="#dad7dc"/><path d="m45.7680588 70.3684692h3.7496223c1.9259453-11.0209846 4.5247192-16.3336296 4.5247192-34.2722816.0000001-17.1686421-2.8652343-31.0961876-6.3995246-31.0961876-3.5342941 0-6.3995361 13.9275455-6.3995361 31.0961876-.0000001 17.938652 2.5987701 23.251297 4.5247192 34.2722816z" fill="#509fd7"/><path d="m38.465179 70.282852h18.357288v2.82239h-18.357288z" fill="#4388b9"/><path d="m38.4704475 81.4127502v11.0188599c0 1.4184876 1.1499024 2.5683899 2.5683861 2.5683899h13.2080879c1.4184875 0 2.5683861-1.1499023 2.5683861-2.5683899v-11.0188599z" fill="#d6b251"/><path d="m57.2699203 79.2335052h-19.2540817c-1.0034866 0-1.8169785.8134918-1.8169785 1.8169785 0 1.00354.8134918 1.8170242 1.8169785 1.8170242h19.2540817c1.0034828 0 1.8169746-.8134842 1.8169746-1.8170242.0000001-1.0034866-.8134917-1.8169785-1.8169746-1.8169785z" fill="#ba9a43"/><path d="m46.3586197 59.5587463h-27.1016636c.10532-2.6826935 2.3073311-4.8268623 5.0158558-4.8268623h.4589958c0-2.1835976 1.7701626-3.9537239 3.9537582-3.9537239.690712 0 1.3394814.1779938 1.9045067.4892998 1.0899525-2.1382446 3.3071899-3.6056862 5.8717842-3.6056862 3.6409264 0 6.5924835 2.951561 6.5924835 6.5925179 0 .2586136-.0186996.5125427-.047657.7633858 1.8992577.6645621 3.268406 2.4357146 3.3519364 4.5410689z" fill="#ececec"/><g fill="#e6e7e8"><path d="m9.4146051 60.7508316h32.5328903c-.1264229-3.2203064-2.7697258-5.7941742-6.0210419-5.7941742h-.5509805c0-2.6211929-2.1249046-4.7460556-4.7460995-4.7460556-.8291321 0-1.6079159.2136612-2.2861748.5873566-1.3083801-2.5667534-3.9699554-4.3282738-7.048502-4.3282738-4.3705711 0-7.9136286 3.5430565-7.9136286 7.9136734 0 .3104401.0224476.6152573.0572062.9163704-2.2798699.7977371-3.9233979 2.9238357-4.0236692 5.4511032z"/><path d="m9.4146051 60.7508316h32.5328903c-.1264229-3.2203064-2.7697258-5.7941742-6.0210419-5.7941742h-.5509805c0-2.6211929-2.1249046-4.7460556-4.7460995-4.7460556-.8291321 0-1.6079159.2136612-2.2861748.5873566-1.3083801-2.5667534-3.9699554-4.3282738-7.048502-4.3282738-4.3705711 0-7.9136286 3.5430565-7.9136286 7.9136734 0 .3104401.0224476.6152573.0572062.9163704-2.2798699.7977371-3.9233979 2.9238357-4.0236692 5.4511032z"/></g></svg>