<?xml version="1.0" encoding="iso-8859-1"?>
<!-- Generator: Adobe Illustrator 19.0.0, SVG Export Plug-In . SVG Version: 6.00 Build 0)  -->
<svg version="1.1" id="Layer_1" xmlns="http://www.w3.org/2000/svg" xmlns:xlink="http://www.w3.org/1999/xlink" x="0px" y="0px"
	 viewBox="0 0 512 512" style="enable-background:new 0 0 512 512;" xml:space="preserve">
<g>
	<path style="fill:#E6E9ED;" d="M214.957,432.892c-4.099,0-7.676-3.021-8.258-7.197l-8.387-60.207
		c-0.637-4.567,2.55-8.784,7.118-9.42c4.562-0.633,8.783,2.55,9.42,7.117l8.387,60.207c0.636,4.567-2.55,8.784-7.118,9.42
		C215.729,432.865,215.341,432.892,214.957,432.892z"/>
	<path style="fill:#E6E9ED;" d="M256,432.89c-4.61,0-8.348-3.738-8.348-8.348v-60.207c0-4.61,3.738-8.348,8.348-8.348
		c4.61,0,8.348,3.738,8.348,8.348v60.207C264.348,429.153,260.61,432.89,256,432.89z"/>
	<path style="fill:#E6E9ED;" d="M297.044,432.892c-0.384,0-0.771-0.027-1.162-0.081c-4.567-0.636-7.753-4.853-7.118-9.42
		l8.387-60.207c0.637-4.567,4.855-7.747,9.42-7.117c4.567,0.636,7.753,4.853,7.117,9.42l-8.386,60.207
		C304.719,429.87,301.143,432.892,297.044,432.892z"/>
</g>
<path style="fill:#3EBEDB;" d="M382.559,281.63c0.053-0.094,0.105-0.188,0.158-0.282c0.541-0.955,1.076-1.914,1.607-2.877
	c0.095-0.171,0.191-0.341,0.286-0.512c0.628-1.143,1.245-2.292,1.859-3.444c0.149-0.282,0.295-0.564,0.444-0.847
	c0.453-0.86,0.905-1.724,1.349-2.59c0.21-0.409,0.416-0.818,0.623-1.228c0.381-0.75,0.759-1.5,1.132-2.254
	c0.219-0.442,0.437-0.885,0.654-1.328c0.358-0.732,0.715-1.466,1.066-2.202c0.214-0.446,0.427-0.893,0.639-1.341
	c0.358-0.759,0.712-1.519,1.064-2.282c0.194-0.416,0.387-0.831,0.578-1.249c0.407-0.892,0.807-1.785,1.204-2.681
	c0.127-0.285,0.256-0.57,0.382-0.856c0.518-1.178,1.028-2.357,1.529-3.539c0.126-0.298,0.248-0.597,0.373-0.894
	c0.373-0.887,0.742-1.774,1.105-2.664c0.178-0.437,0.353-0.875,0.529-1.313c0.305-0.758,0.608-1.516,0.906-2.275
	c0.186-0.472,0.37-0.945,0.552-1.419c0.282-0.731,0.561-1.464,0.837-2.196c0.181-0.482,0.362-0.963,0.54-1.445
	c0.277-0.748,0.549-1.497,0.819-2.246c0.163-0.454,0.328-0.907,0.489-1.36c0.303-0.856,0.601-1.713,0.895-2.57
	c0.119-0.345,0.242-0.69,0.358-1.035c0.404-1.192,0.8-2.386,1.187-3.58c0.095-0.292,0.185-0.582,0.278-0.874
	c0.292-0.912,0.58-1.822,0.86-2.734c0.138-0.445,0.27-0.89,0.405-1.336c0.232-0.764,0.461-1.527,0.685-2.291
	c0.14-0.48,0.279-0.959,0.416-1.439c0.211-0.735,0.419-1.469,0.622-2.203c0.135-0.485,0.269-0.971,0.401-1.456
	c0.203-0.746,0.398-1.491,0.594-2.236c0.12-0.462,0.244-0.924,0.361-1.387c0.213-0.831,0.419-1.661,0.622-2.491
	c0.09-0.37,0.185-0.74,0.274-1.111c0.285-1.19,0.563-2.38,0.83-3.567c0.05-0.229,0.098-0.457,0.149-0.687
	c0.214-0.968,0.425-1.936,0.627-2.902c0.087-0.417,0.168-0.834,0.254-1.251c0.158-0.778,0.314-1.556,0.464-2.332
	c0.089-0.464,0.175-0.927,0.262-1.391c0.137-0.732,0.269-1.465,0.397-2.196c0.083-0.473,0.166-0.946,0.246-1.418
	c0.126-0.737,0.246-1.473,0.363-2.207c0.072-0.45,0.144-0.9,0.213-1.349c0.124-0.809,0.239-1.614,0.353-2.42
	c0.052-0.368,0.108-0.739,0.158-1.107c0.159-1.169,0.311-2.335,0.449-3.497c0.014-0.116,0.025-0.232,0.038-0.348
	c0.122-1.045,0.237-2.087,0.344-3.127c0.04-0.394,0.073-0.788,0.113-1.182c0.071-0.762,0.142-1.525,0.206-2.283
	c0.037-0.445,0.071-0.887,0.105-1.33c0.056-0.715,0.107-1.428,0.155-2.139c0.028-0.447,0.057-0.895,0.082-1.342
	c0.041-0.715,0.078-1.427,0.111-2.137c0.02-0.43,0.04-0.859,0.057-1.288c0.03-0.766,0.052-1.528,0.073-2.288
	c0.01-0.363,0.023-0.726,0.029-1.087c0.022-1.117,0.036-2.231,0.036-3.337C417.355,72.24,345.114,0,256,0
	S94.645,72.24,94.645,161.353c0,1.106,0.014,2.221,0.036,3.337c0.007,0.362,0.02,0.725,0.029,1.087
	c0.02,0.761,0.042,1.523,0.072,2.288c0.017,0.427,0.037,0.858,0.057,1.288c0.032,0.711,0.07,1.422,0.111,2.137
	c0.026,0.446,0.055,0.894,0.082,1.342c0.048,0.711,0.099,1.425,0.155,2.139c0.033,0.443,0.068,0.886,0.105,1.33
	c0.063,0.759,0.135,1.52,0.207,2.283c0.039,0.394,0.072,0.788,0.114,1.182c0.106,1.04,0.219,2.081,0.344,3.127
	c0.013,0.116,0.024,0.232,0.038,0.348c0.138,1.162,0.289,2.328,0.449,3.497c0.05,0.368,0.106,0.739,0.158,1.107
	c0.115,0.806,0.229,1.611,0.353,2.42c0.069,0.449,0.141,0.899,0.213,1.349c0.117,0.735,0.237,1.47,0.363,2.207
	c0.08,0.472,0.163,0.945,0.246,1.418c0.128,0.731,0.26,1.463,0.397,2.196c0.087,0.464,0.173,0.927,0.262,1.391
	c0.15,0.776,0.305,1.554,0.464,2.332c0.085,0.417,0.166,0.834,0.254,1.251c0.201,0.966,0.412,1.933,0.627,2.902
	c0.051,0.229,0.099,0.457,0.149,0.687c0.267,1.188,0.545,2.377,0.83,3.567c0.089,0.371,0.184,0.741,0.274,1.111
	c0.204,0.83,0.408,1.66,0.621,2.491c0.118,0.462,0.242,0.925,0.362,1.387c0.195,0.745,0.393,1.49,0.594,2.236
	c0.131,0.485,0.266,0.971,0.401,1.456c0.204,0.735,0.411,1.468,0.622,2.203c0.137,0.48,0.276,0.959,0.416,1.439
	c0.224,0.762,0.453,1.527,0.685,2.291c0.135,0.445,0.267,0.89,0.405,1.336c0.28,0.912,0.57,1.822,0.862,2.734
	c0.093,0.29,0.184,0.582,0.278,0.874c0.387,1.194,0.782,2.387,1.187,3.58c0.117,0.345,0.239,0.69,0.357,1.035
	c0.295,0.857,0.592,1.714,0.896,2.57c0.161,0.453,0.326,0.906,0.489,1.36c0.27,0.749,0.542,1.497,0.819,2.246
	c0.178,0.482,0.358,0.964,0.54,1.445c0.276,0.732,0.555,1.465,0.837,2.196c0.183,0.473,0.366,0.946,0.552,1.419
	c0.298,0.759,0.6,1.518,0.906,2.275c0.175,0.439,0.349,0.876,0.529,1.313c0.363,0.889,0.732,1.776,1.105,2.664
	c0.125,0.298,0.247,0.597,0.373,0.894c0.501,1.183,1.011,2.362,1.529,3.539c0.125,0.286,0.255,0.57,0.382,0.856
	c0.397,0.895,0.797,1.789,1.204,2.681c0.19,0.417,0.384,0.833,0.578,1.249c0.352,0.762,0.706,1.523,1.063,2.282
	c0.213,0.447,0.426,0.895,0.64,1.341c0.352,0.736,0.708,1.469,1.066,2.202c0.217,0.443,0.435,0.886,0.654,1.328
	c0.374,0.754,0.752,1.504,1.133,2.254c0.207,0.41,0.413,0.819,0.623,1.228c0.444,0.866,0.896,1.73,1.349,2.59
	c0.149,0.283,0.295,0.565,0.443,0.847c0.613,1.153,1.231,2.301,1.859,3.444c0.095,0.171,0.191,0.342,0.286,0.512
	c0.532,0.963,1.066,1.921,1.607,2.877c0.053,0.094,0.105,0.188,0.158,0.282l0.042,0.066c4.368,7.676,9.089,15.115,14.128,22.223
	l0.042,0.068c0.065,0.09,0.13,0.179,0.195,0.269c0.686,0.964,1.377,1.922,2.074,2.873c0.078,0.106,0.155,0.214,0.233,0.321
	c0.785,1.066,1.578,2.126,2.379,3.177c0.178,0.235,0.36,0.466,0.539,0.7c0.609,0.794,1.22,1.583,1.835,2.366
	c0.266,0.339,0.535,0.674,0.805,1.013c0.544,0.685,1.091,1.365,1.643,2.04c0.285,0.351,0.572,0.701,0.858,1.05
	c0.561,0.68,1.126,1.356,1.693,2.028c0.266,0.316,0.532,0.633,0.8,0.947c0.72,0.844,1.446,1.681,2.175,2.51
	c0.111,0.126,0.22,0.255,0.332,0.381c0.844,0.954,1.694,1.897,2.55,2.832c0.242,0.262,0.485,0.52,0.726,0.781
	c0.619,0.669,1.24,1.335,1.865,1.992c0.308,0.324,0.618,0.644,0.927,0.966c0.575,0.598,1.152,1.191,1.733,1.779
	c0.318,0.323,0.637,0.644,0.956,0.964c0.608,0.608,1.22,1.209,1.831,1.805c0.285,0.277,0.569,0.557,0.855,0.831
	c0.834,0.802,1.673,1.596,2.518,2.379c0.061,0.058,0.121,0.117,0.185,0.175c0.909,0.841,1.828,1.67,2.749,2.489
	c0.267,0.238,0.538,0.47,0.807,0.706c0.658,0.578,1.317,1.15,1.979,1.715c0.329,0.281,0.661,0.558,0.992,0.835
	c0.62,0.52,1.24,1.034,1.864,1.543c0.338,0.275,0.674,0.55,1.013,0.821c0.658,0.528,1.319,1.046,1.98,1.563
	c0.296,0.23,0.591,0.465,0.889,0.693c0.955,0.733,1.917,1.457,2.883,2.164c2.134-2.805,5.496-4.621,9.291-4.621h116.389
	c3.794,0,7.157,1.818,9.291,4.621c0.966-0.708,1.928-1.431,2.883-2.164c0.297-0.228,0.592-0.463,0.889-0.693
	c0.662-0.515,1.323-1.035,1.98-1.563c0.338-0.272,0.674-0.547,1.013-0.821c0.624-0.509,1.244-1.023,1.864-1.543
	c0.331-0.277,0.662-0.555,0.992-0.836c0.661-0.563,1.319-1.134,1.973-1.71c0.272-0.237,0.543-0.472,0.815-0.712
	c0.92-0.818,1.838-1.646,2.747-2.487c0.063-0.058,0.124-0.117,0.185-0.175c0.845-0.784,1.684-1.577,2.518-2.379
	c0.286-0.275,0.57-0.554,0.854-0.831c0.613-0.597,1.224-1.198,1.832-1.805c0.319-0.319,0.638-0.642,0.956-0.964
	c0.58-0.588,1.158-1.182,1.733-1.779c0.309-0.322,0.619-0.642,0.927-0.966c0.626-0.658,1.247-1.323,1.865-1.992
	c0.242-0.26,0.485-0.519,0.726-0.781c0.857-0.935,1.706-1.877,2.55-2.832c0.111-0.126,0.22-0.254,0.332-0.381
	c0.729-0.829,1.456-1.666,2.175-2.51c0.269-0.314,0.534-0.632,0.803-0.949c0.565-0.671,1.129-1.343,1.688-2.022
	c0.289-0.352,0.578-0.703,0.865-1.057c0.549-0.674,1.094-1.353,1.637-2.036c0.269-0.337,0.538-0.674,0.806-1.014
	c0.617-0.784,1.228-1.573,1.835-2.366c0.179-0.234,0.361-0.465,0.539-0.7c0.8-1.051,1.594-2.109,2.379-3.177
	c0.078-0.106,0.155-0.214,0.233-0.321c0.697-0.951,1.388-1.909,2.074-2.873c0.065-0.09,0.13-0.179,0.195-0.269l0.042-0.068
	c5.039-7.108,9.761-14.547,14.128-22.223L382.559,281.63z"/>
<path style="fill:#97D3EE;" d="M256,0c-1.878,0-3.743,0.043-5.604,0.108c-39.018,32.052-63.908,80.671-63.908,135.107
	c0,96.521,78.246,174.767,174.767,174.767c0.909,0,1.814-0.02,2.72-0.035c0.627-0.829,1.252-1.658,1.87-2.498
	c0.078-0.106,0.155-0.214,0.233-0.321c0.697-0.951,1.388-1.909,2.074-2.873c0.065-0.09,0.13-0.179,0.195-0.269l0.042-0.068
	c5.039-7.108,9.761-14.547,14.128-22.223l0.042-0.066c0.053-0.094,0.105-0.188,0.158-0.282c0.541-0.955,1.076-1.914,1.607-2.877
	c0.095-0.171,0.191-0.341,0.286-0.512c0.628-1.143,1.245-2.292,1.859-3.444c0.149-0.282,0.295-0.564,0.444-0.847
	c0.453-0.86,0.905-1.724,1.349-2.59c0.21-0.409,0.416-0.818,0.623-1.228c0.381-0.75,0.759-1.5,1.132-2.254
	c0.219-0.442,0.437-0.885,0.654-1.328c0.358-0.732,0.715-1.466,1.066-2.202c0.214-0.446,0.427-0.893,0.639-1.341
	c0.358-0.759,0.712-1.519,1.064-2.282c0.194-0.416,0.387-0.831,0.578-1.249c0.407-0.892,0.807-1.785,1.204-2.681
	c0.127-0.285,0.256-0.57,0.382-0.856c0.518-1.178,1.028-2.357,1.529-3.539c0.126-0.298,0.248-0.597,0.373-0.894
	c0.373-0.887,0.742-1.774,1.105-2.664c0.178-0.437,0.353-0.875,0.529-1.313c0.305-0.758,0.608-1.516,0.906-2.275
	c0.186-0.472,0.37-0.945,0.552-1.419c0.282-0.731,0.561-1.464,0.837-2.196c0.181-0.482,0.362-0.963,0.54-1.445
	c0.277-0.748,0.549-1.497,0.819-2.246c0.163-0.454,0.328-0.907,0.489-1.36c0.303-0.856,0.601-1.713,0.895-2.57
	c0.119-0.345,0.242-0.69,0.358-1.035c0.404-1.192,0.8-2.386,1.187-3.58c0.095-0.292,0.185-0.582,0.278-0.874
	c0.292-0.912,0.58-1.822,0.86-2.734c0.138-0.445,0.27-0.89,0.405-1.336c0.232-0.764,0.461-1.527,0.685-2.291
	c0.14-0.48,0.279-0.959,0.416-1.439c0.211-0.735,0.419-1.469,0.622-2.203c0.135-0.485,0.269-0.971,0.401-1.456
	c0.203-0.746,0.398-1.491,0.594-2.236c0.12-0.462,0.244-0.924,0.361-1.387c0.213-0.831,0.419-1.661,0.622-2.491
	c0.09-0.37,0.185-0.74,0.274-1.111c0.285-1.19,0.563-2.38,0.83-3.567c0.05-0.229,0.098-0.457,0.149-0.687
	c0.214-0.968,0.425-1.936,0.627-2.902c0.087-0.417,0.168-0.834,0.254-1.251c0.158-0.778,0.314-1.556,0.464-2.332
	c0.089-0.464,0.175-0.927,0.262-1.391c0.137-0.732,0.269-1.465,0.397-2.196c0.083-0.473,0.166-0.946,0.246-1.418
	c0.126-0.737,0.246-1.473,0.363-2.207c0.072-0.45,0.144-0.9,0.213-1.349c0.124-0.809,0.239-1.614,0.353-2.42
	c0.052-0.368,0.108-0.739,0.158-1.107c0.159-1.169,0.311-2.335,0.449-3.497c0.014-0.116,0.025-0.232,0.038-0.348
	c0.122-1.045,0.237-2.087,0.344-3.127c0.04-0.394,0.073-0.788,0.113-1.182c0.071-0.762,0.142-1.525,0.206-2.283
	c0.037-0.445,0.071-0.887,0.105-1.33c0.056-0.715,0.107-1.428,0.155-2.139c0.028-0.447,0.057-0.895,0.082-1.342
	c0.041-0.715,0.078-1.427,0.111-2.137c0.02-0.43,0.04-0.859,0.057-1.288c0.03-0.766,0.052-1.528,0.073-2.288
	c0.01-0.363,0.023-0.726,0.029-1.087c0.022-1.117,0.036-2.231,0.036-3.337C417.355,72.24,345.114,0,256,0z"/>
<path style="fill:#2C9B46;" d="M349.313,92.761C332.846,37.946,297.253,0,256,0c-56.92,0-103.061,72.24-103.061,161.353
	c0,62.649,22.812,142.685,56.135,184.717h9.757h74.34h9.757c33.322-42.032,56.135-122.069,56.135-184.717
	c0-14.166-1.166-27.903-3.356-40.993"/>
<path style="fill:#4ABF69;" d="M186.488,135.214c0,84.644,60.174,155.226,140.077,171.319
	c19.998-42.956,32.497-98.82,32.497-145.179c0-14.166-1.166-27.903-3.356-40.993l-6.393-27.599C332.846,37.946,297.253,0,256,0
	c-1.944,0-3.876,0.092-5.792,0.258C211.298,32.312,186.488,80.865,186.488,135.214z"/>
<path style="fill:#3EBEDB;" d="M242.361,346.071h27.278h3.581c12.228-42.032,20.598-122.069,20.598-184.717
	C293.818,72.24,276.886,0,256,0s-37.818,72.24-37.818,161.353c0,62.649,8.37,142.685,20.598,184.717H242.361z"/>
<path style="fill:#80D6FF;" d="M256,0c-20.886,0-37.818,72.24-37.818,161.353c0,24.841,1.32,52.413,3.671,79.269
	c16.404,21.661,37.739,39.375,62.335,51.48c5.987-40.554,9.629-89.431,9.629-130.749C293.818,72.24,276.886,0,256,0z"/>
<path style="fill:#F7A539;" d="M325.876,357.751c0-6.451-5.23-11.68-11.68-11.68H197.807c-6.452,0-11.681,5.229-11.681,11.68
	c0,6.452,5.229,11.681,11.681,11.681h116.389C320.646,369.432,325.876,364.203,325.876,357.751z"/>
<path style="fill:#F48A3B;" d="M314.196,358.865H197.807c-4.548,0-8.479-2.603-10.409-6.398c-0.808,1.588-1.273,3.38-1.273,5.284
	c0,6.452,5.229,11.681,11.681,11.681h116.389c6.45,0,11.68-5.229,11.68-11.681c0-1.903-0.465-3.695-1.273-5.284
	C322.672,356.261,318.742,358.865,314.196,358.865z"/>
<path style="fill:#9B7A64;" d="M301.526,424.543h-91.053c-7.939,0-14.376,6.437-14.376,14.376v58.704
	c0,7.94,6.437,14.377,14.376,14.377h91.053c7.939,0,14.376-6.437,14.376-14.377v-26.576v-26.342v-5.786
	C315.902,430.979,309.465,424.543,301.526,424.543z"/>
<path style="fill:#8E634C;" d="M218.183,497.623v-58.704c0-7.939,6.437-14.376,14.376-14.376h-22.086
	c-7.939,0-14.376,6.437-14.376,14.376v58.704c0,7.94,6.437,14.377,14.376,14.377h22.086
	C224.621,512,218.183,505.563,218.183,497.623z"/>
<g>
</g>
<g>
</g>
<g>
</g>
<g>
</g>
<g>
</g>
<g>
</g>
<g>
</g>
<g>
</g>
<g>
</g>
<g>
</g>
<g>
</g>
<g>
</g>
<g>
</g>
<g>
</g>
<g>
</g>
</svg>
