<?xml version="1.0" encoding="iso-8859-1"?>
<!-- Generator: Adobe Illustrator 19.0.0, SVG Export Plug-In . SVG Version: 6.00 Build 0)  -->
<svg version="1.1" id="Layer_1" xmlns="http://www.w3.org/2000/svg" xmlns:xlink="http://www.w3.org/1999/xlink" x="0px" y="0px"
	 viewBox="0 0 512 512" style="enable-background:new 0 0 512 512;" xml:space="preserve">
<path style="fill:#84DBFF;" d="M316.8,395.733C385.067,314.667,437.333,288,437.333,176C437.333,66.133,356.267,0,256,0
	S74.667,66.133,74.667,176c0,112,52.267,138.667,120.533,219.733H316.8z"/>
<path style="fill:#F2F2F2;" d="M299.733,395.733C349.867,314.667,388.267,288,388.267,176C389.333,66.133,329.6,0,256,0
	S122.667,66.133,122.667,176c0,112,38.4,138.667,88.533,219.733H299.733z"/>
<path style="fill:#84DBFF;" d="M283.733,395.733C314.667,314.667,339.2,288,339.2,176C338.133,66.133,301.867,0,256,0
	s-82.133,66.133-82.133,176c0,112,23.467,138.667,55.467,219.733H283.733z"/>
<path style="fill:#F2F2F2;" d="M264.533,395.733C274.133,314.667,281.6,288,281.6,176C281.6,66.133,269.867,0,256,0
	c-13.867,0-25.6,66.133-25.6,176c0,112,7.467,138.667,17.067,219.733H264.533z"/>
<polygon style="fill:#54C0EB;" points="305.067,405.333 206.933,405.333 195.2,395.733 316.8,395.733 "/>
<g>
	<polygon style="fill:#FFD15C;" points="200.533,436.267 206.933,405.333 217.6,405.333 211.2,436.267 	"/>
	<polygon style="fill:#FFD15C;" points="311.467,436.267 305.067,405.333 294.4,405.333 300.8,436.267 	"/>
</g>
<path style="fill:#FF7058;" d="M312.533,512H199.467c-6.4,0-10.667-4.267-10.667-10.667v-65.067h133.333v65.067
	C323.2,507.733,317.867,512,312.533,512z"/>
<g>
</g>
<g>
</g>
<g>
</g>
<g>
</g>
<g>
</g>
<g>
</g>
<g>
</g>
<g>
</g>
<g>
</g>
<g>
</g>
<g>
</g>
<g>
</g>
<g>
</g>
<g>
</g>
<g>
</g>
</svg>
