<?xml version="1.0" encoding="iso-8859-1"?>
<!-- Generator: Adobe Illustrator 19.0.0, SVG Export Plug-In . SVG Version: 6.00 Build 0)  -->
<svg version="1.1" id="Capa_1" xmlns="http://www.w3.org/2000/svg" xmlns:xlink="http://www.w3.org/1999/xlink" x="0px" y="0px"
	 viewBox="0 0 512 512" style="enable-background:new 0 0 512 512;" xml:space="preserve">
<g>
	<path style="fill:#803716;" d="M288,464c-4.418,0-8-3.582-8-8v-56c0-4.418,3.582-8,8-8s8,3.582,8,8v56
		C296,460.418,292.418,464,288,464z"/>
	<path style="fill:#803716;" d="M224,464c-4.418,0-8-3.582-8-8v-56c0-4.418,3.582-8,8-8s8,3.582,8,8v56
		C232,460.418,228.418,464,224,464z"/>
</g>
<path id="SVGCleanerId_0" style="fill:#ED3124;" d="M380.039,43.166C347.986,15.33,303.935,0,256,0s-91.986,15.33-124.039,43.166
	C98.453,72.265,80,113.757,80,160c0,77.242,53.771,124.407,93.034,158.846c11.707,10.268,21.817,19.136,28.919,27.335
	c11.702,13.51,14.107,43.393,14.047,53.761c-0.016,2.132,0.82,4.182,2.322,5.694S221.868,408,224,408h64
	c2.132,0,4.176-0.851,5.678-2.364s2.338-3.563,2.322-5.694c-0.075-10.356,2.302-40.202,14.047-53.761
	c7.102-8.199,17.212-17.067,28.919-27.335C378.229,284.407,432,237.242,432,160C432,113.757,413.547,72.265,380.039,43.166z"/>
<g>
	<path id="SVGCleanerId_0_1_" style="fill:#ED3124;" d="M380.039,43.166C347.986,15.33,303.935,0,256,0
		s-91.986,15.33-124.039,43.166C98.453,72.265,80,113.757,80,160c0,77.242,53.771,124.407,93.034,158.846
		c11.707,10.268,21.817,19.136,28.919,27.335c11.702,13.51,14.107,43.393,14.047,53.761c-0.016,2.132,0.82,4.182,2.322,5.694
		S221.868,408,224,408h64c2.132,0,4.176-0.851,5.678-2.364s2.338-3.563,2.322-5.694c-0.075-10.356,2.302-40.202,14.047-53.761
		c7.102-8.199,17.212-17.067,28.919-27.335C378.229,284.407,432,237.242,432,160C432,113.757,413.547,72.265,380.039,43.166z"/>
</g>
<path style="fill:#D32C27;" d="M240,399.942c0.061-10.369-2.345-40.251-14.047-53.761c-7.102-8.199-17.212-17.067-28.919-27.335
	C157.771,284.407,104,237.242,104,160c0-46.243,18.453-87.735,51.961-116.834C185.319,17.67,224.746,2.676,268,0.333
	C264.03,0.118,260.03,0,256,0c-47.935,0-91.986,15.33-124.039,43.166C98.453,72.265,80,113.757,80,160
	c0,77.242,53.771,124.407,93.034,158.846c11.707,10.268,21.817,19.136,28.919,27.335c11.702,13.51,14.107,43.393,14.047,53.761
	c-0.016,2.132,0.82,4.182,2.322,5.694S221.868,408,224,408h24c-2.132,0-4.176-0.851-5.678-2.364S239.984,402.074,240,399.942z"/>
<g>
	<path style="fill:#F9CB2A;" d="M329.296,43.166C310.356,15.33,284.325,0,256,0s-54.356,15.33-73.296,43.166
		C162.904,72.265,152,113.757,152,160c0,77.242,31.774,124.407,54.975,158.846c6.918,10.268,12.892,19.136,17.088,27.335
		c6.915,13.51,8.336,43.393,8.3,53.761c-0.009,2.132,0.485,4.182,1.372,5.694S235.83,408,237.09,408h37.818
		c1.26,0,2.467-0.851,3.355-2.364s1.381-3.563,1.372-5.694c-0.044-10.356,1.36-40.202,8.3-53.761
		c4.196-8.199,10.171-17.067,17.088-27.335C328.226,284.407,360,237.242,360,160C360,113.757,349.096,72.265,329.296,43.166z"/>
	<path style="fill:#F9CB2A;" d="M256,0c-12.1,0-23.778,2.807-34.667,8.181c13.858-4.042,28.474-6.625,43.581-7.658
		C261.972,0.182,259,0,256,0z"/>
</g>
<path style="fill:#F7B906;" d="M240,399.942c0.061-10.369-2.345-40.251-14.047-53.761c-1.429-1.65-2.985-3.328-4.646-5.038
	c0.98,1.707,1.913,3.39,2.756,5.038c6.915,13.51,8.336,43.393,8.301,53.761c-0.009,2.132,0.485,4.182,1.372,5.694
	c0.888,1.513,2.095,2.364,3.355,2.364H248c-2.132,0-4.176-0.851-5.678-2.364S239.984,402.074,240,399.942z"/>
<path style="fill:#ED3124;" d="M289.829,43.166C281.087,15.33,269.073,0,256,0s-25.087,15.33-33.829,43.166
	C213.033,72.265,208,113.757,208,160c0,77.242,14.665,124.407,25.373,158.846c3.193,10.268,5.95,19.136,7.887,27.335
	c3.191,13.51,3.847,43.393,3.831,53.761c-0.004,2.132,0.224,4.182,0.633,5.694s0.967,2.364,1.548,2.364h17.455
	c0.581,0,1.139-0.851,1.548-2.364c0.41-1.513,0.638-3.563,0.633-5.694c-0.021-10.356,0.628-40.202,3.831-53.761
	c1.937-8.199,4.694-17.067,7.887-27.335C289.335,284.407,304,237.242,304,160C304,113.757,298.967,72.265,289.829,43.166z"/>
<path style="fill:#F9CB2A;" d="M287.667,448H224c-4.418,0-8,3.582-8,8v32c0,13.233,10.767,24,24,24h31.667c13.233,0,24-10.767,24-24
	v-32C295.667,451.582,292.085,448,287.667,448z"/>
<path style="fill:#F7B906;" d="M232,488v-32c0-4.418,3.582-8,8-8h-16c-4.418,0-8,3.582-8,8v32c0,13.233,10.767,24,24,24h16
	C242.767,512,232,501.233,232,488z"/>
<g>
	<path style="fill:#58BEC7;" d="M224,216l63.357,9.051l-34.466,38.521c-1.903,2.127-5.358,1.634-6.59-0.941L224,216z"/>
	<path style="fill:#58BEC7;" d="M138.821,174.585l56.109,30.786l-45.825,23.913c-2.53,1.32-5.59-0.358-5.836-3.202L138.821,174.585z
		"/>
	<path style="fill:#58BEC7;" d="M312,224.607L375.419,216l-22.628,46.473c-1.25,2.566-4.708,3.036-6.596,0.895L312,224.607z"/>
</g>
<path style="fill:#803716;" d="M296,232c46.417,0,91.104-11.227,130.976-32.38c1.738-6.651,3.064-13.569,3.916-20.771
	C391.389,202.428,345.253,216,296,216c-85.064,0-160.847-40.451-209.161-103.116c-1.959,6.477-3.505,13.131-4.628,19.936
	c5.007,5.901,10.265,11.636,15.798,17.17C150.895,202.875,221.209,232,296,232z"/>
<g>
</g>
<g>
</g>
<g>
</g>
<g>
</g>
<g>
</g>
<g>
</g>
<g>
</g>
<g>
</g>
<g>
</g>
<g>
</g>
<g>
</g>
<g>
</g>
<g>
</g>
<g>
</g>
<g>
</g>
</svg>
