<?xml version="1.0" encoding="iso-8859-1"?>
<!-- Generator: Adobe Illustrator 19.0.0, SVG Export Plug-In . SVG Version: 6.00 Build 0)  -->
<svg version="1.1" id="Capa_1" xmlns="http://www.w3.org/2000/svg" xmlns:xlink="http://www.w3.org/1999/xlink" x="0px" y="0px"
	 viewBox="0 0 512 512" style="enable-background:new 0 0 512 512;" xml:space="preserve">
<g transform="translate(0 -1)">
	<ellipse style="fill:#FFA800;" cx="273.067" cy="171.672" rx="145.067" ry="162.133"/>
	<ellipse style="fill:#FFFFFF;" cx="238.933" cy="171.672" rx="145.067" ry="162.133"/>
	<ellipse style="fill:#FEDD0A;" cx="256" cy="171.672" rx="136.533" ry="162.133"/>
	<g>
		<path d="M256,342.333c-94.257,0-170.667-76.41-170.667-170.667S161.743,1,256,1s170.667,76.41,170.667,170.667
			C426.559,265.879,350.212,342.226,256,342.333L256,342.333z M256,18.067c-84.831,0-153.6,68.769-153.6,153.6
			s68.769,153.6,153.6,153.6s153.6-68.769,153.6-153.6C409.505,86.875,340.791,18.162,256,18.067z"/>
		<path d="M256,342.333c-65.875,0-119.467-76.563-119.467-170.667S190.125,1,256,1s119.467,76.563,119.467,170.667
			S321.875,342.333,256,342.333z M256,18.067c-56.463,0-102.4,68.904-102.4,153.6s45.937,153.6,102.4,153.6
			s102.4-68.904,102.4-153.6S312.463,18.067,256,18.067z"/>
		<path d="M256,342.333c-38.8,0-59.733-87.933-59.733-170.667S217.2,1,256,1s59.733,87.933,59.733,170.667
			S294.8,342.333,256,342.333z M256,18.067c-17.817,0-42.667,58.433-42.667,153.6s24.85,153.6,42.667,153.6
			c17.817,0,42.667-58.433,42.667-153.6S273.817,18.067,256,18.067z"/>
		<path d="M119.467,197.267c-18.842-0.022-34.112-15.291-34.133-34.133c0-4.713,3.821-8.533,8.533-8.533s8.533,3.821,8.533,8.533
			c0,6.097,3.253,11.731,8.533,14.78c5.28,3.049,11.786,3.049,17.067,0c5.28-3.049,8.533-8.683,8.533-14.78
			c0-4.713,3.82-8.533,8.533-8.533s8.533,3.821,8.533,8.533C153.578,181.976,138.309,197.245,119.467,197.267z"/>
		<path d="M392.533,197.267c-18.842-0.022-34.112-15.291-34.133-34.133c0-4.713,3.82-8.533,8.533-8.533s8.533,3.821,8.533,8.533
			c0,9.426,7.641,17.067,17.067,17.067s17.067-7.641,17.067-17.067c0-4.713,3.82-8.533,8.533-8.533s8.533,3.821,8.533,8.533
			C426.647,181.976,411.376,197.247,392.533,197.267L392.533,197.267z"/>
		<path d="M174.933,218.6c-21.198-0.023-38.377-17.202-38.4-38.4c0-4.713,3.82-8.533,8.533-8.533s8.533,3.821,8.533,8.533
			c0,7.622,4.066,14.664,10.667,18.475c6.601,3.811,14.733,3.811,21.333,0c6.601-3.811,10.667-10.854,10.667-18.475
			c0-4.713,3.821-8.533,8.533-8.533s8.533,3.821,8.533,8.533C213.31,201.398,196.132,218.577,174.933,218.6z"/>
		<path d="M337.067,218.6c-21.198-0.023-38.377-17.202-38.4-38.4c0-4.713,3.821-8.533,8.533-8.533c4.713,0,8.533,3.821,8.533,8.533
			c0,11.782,9.551,21.333,21.333,21.333c11.782,0,21.333-9.551,21.333-21.333c0-4.713,3.82-8.533,8.533-8.533
			s8.533,3.821,8.533,8.533C375.444,201.398,358.265,218.577,337.067,218.6z"/>
		<path d="M256,248.467c-32.974-0.037-59.696-26.759-59.733-59.733c0-4.713,3.821-8.533,8.533-8.533s8.533,3.821,8.533,8.533
			c0,23.564,19.103,42.667,42.667,42.667s42.667-19.103,42.667-42.667c0-4.713,3.821-8.533,8.533-8.533
			c4.713,0,8.533,3.821,8.533,8.533C315.696,221.708,288.974,248.43,256,248.467L256,248.467z"/>
		<path d="M256,444.733h-34.133c-3.161,0.001-6.064-1.747-7.542-4.542l-76.8-145.067c-1.431-2.695-1.314-5.949,0.307-8.534
			s4.498-4.108,7.548-3.995c3.049,0.114,5.806,1.847,7.229,4.545l74.396,140.525h17.442l-30.733-99.892
			c-1.366-4.497,1.162-9.252,5.654-10.634s9.256,1.13,10.654,5.618l34.133,110.933c0.797,2.588,0.317,5.4-1.291,7.578
			C261.255,443.448,258.708,444.733,256,444.733z"/>
		<path d="M290.133,444.733H256c-2.708,0-5.255-1.285-6.863-3.463c-1.609-2.178-2.088-4.991-1.291-7.578l34.133-110.933
			c1.397-4.488,6.161-7,10.654-5.618c4.492,1.382,7.021,6.137,5.654,10.634l-30.733,99.892h17.442l74.396-140.525
			c1.424-2.699,4.18-4.432,7.229-4.545c3.049-0.114,5.927,1.41,7.547,3.995c1.621,2.585,1.738,5.839,0.307,8.534l-76.8,145.067
			C296.197,442.986,293.295,444.734,290.133,444.733L290.133,444.733z"/>
	</g>
	<path style="fill:#FFA800;" d="M238.933,436.201H307.2c4.713,0,8.533,3.821,8.533,8.533v34.133c0,14.138-11.462,25.6-25.6,25.6H256
		c-14.139,0-25.6-11.461-25.6-25.6v-34.133C230.4,440.021,234.221,436.201,238.933,436.201z"/>
	<path style="fill:#FFFFFF;" d="M204.8,436.201h68.267c4.713,0,8.533,3.821,8.533,8.533v34.133c0,14.138-11.462,25.6-25.6,25.6
		h-34.133c-14.138,0-25.6-11.461-25.6-25.6v-34.133C196.267,440.021,200.087,436.201,204.8,436.201z"/>
	<path style="fill:#FEDD0A;" d="M230.4,436.201h51.2c4.713,0,8.533,3.821,8.533,8.533v34.133c0,14.138-11.462,25.6-25.6,25.6
		h-17.067c-14.138,0-25.6-11.461-25.6-25.6v-34.133C221.867,440.021,225.687,436.201,230.4,436.201z"/>
	<g>
		<path d="M290.133,513h-68.267c-18.842-0.022-34.112-15.291-34.133-34.133v-34.133c0.009-9.422,7.645-17.057,17.067-17.067h102.4
			c9.422,0.009,17.057,7.645,17.067,17.067v34.133C324.245,497.709,308.976,512.979,290.133,513z M204.8,444.733v34.133
			c0.009,9.422,7.645,17.057,17.067,17.067h68.267c9.422-0.009,17.057-7.645,17.067-17.067v-34.133H204.8z"/>
		<path d="M315.733,478.867H196.267c-4.713,0-8.533-3.82-8.533-8.533c0-4.713,3.821-8.533,8.533-8.533h119.467
			c4.713,0,8.533,3.82,8.533,8.533C324.267,475.046,320.446,478.867,315.733,478.867z"/>
		<path d="M238.933,478.867c-4.713,0-8.533-3.82-8.533-8.533V436.2c0-4.713,3.821-8.533,8.533-8.533c4.713,0,8.533,3.82,8.533,8.533
			v34.133C247.467,475.046,243.646,478.867,238.933,478.867z"/>
		<path d="M273.067,478.867c-4.713,0-8.533-3.82-8.533-8.533V436.2c0-4.713,3.82-8.533,8.533-8.533s8.533,3.82,8.533,8.533v34.133
			C281.6,475.046,277.78,478.867,273.067,478.867z"/>
	</g>
</g>
<g>
</g>
<g>
</g>
<g>
</g>
<g>
</g>
<g>
</g>
<g>
</g>
<g>
</g>
<g>
</g>
<g>
</g>
<g>
</g>
<g>
</g>
<g>
</g>
<g>
</g>
<g>
</g>
<g>
</g>
</svg>
