<?xml version="1.0" encoding="iso-8859-1"?>
<!-- Generator: Adobe Illustrator 19.0.0, SVG Export Plug-In . SVG Version: 6.00 Build 0)  -->
<svg version="1.1" id="Capa_1" xmlns="http://www.w3.org/2000/svg" xmlns:xlink="http://www.w3.org/1999/xlink" x="0px" y="0px"
	 viewBox="0 0 512.001 512.001" style="enable-background:new 0 0 512.001 512.001;" xml:space="preserve">
<path style="fill:#69BFE2;" d="M440.182,189.469c-4.813-15.159-18.995-26.145-35.747-26.145c-19.583,0-35.652,15.013-37.346,34.155
	c-8.429,1.564-14.815,8.943-14.815,17.824c0,10.02,8.123,18.143,18.143,18.143h66.298c12.219,0,22.125-9.906,22.125-22.125
	C458.839,200.282,450.754,191.134,440.182,189.469z"/>
<path style="opacity:0.1;enable-background:new    ;" d="M440.182,189.469c-4.813-15.159-18.995-26.145-35.747-26.145
	c-1.266,0-2.517,0.066-3.751,0.188c15.112,1.483,27.59,11.929,32.044,25.957c10.572,1.665,18.657,10.813,18.657,21.853
	c0,12.219-9.906,22.125-22.125,22.125h7.454c12.219,0,22.125-9.906,22.125-22.125C458.839,200.282,450.754,191.134,440.182,189.469z
	"/>
<path style="fill:#FDBA6D;" d="M291.854,20.046c51.6,0,121.342,49.149,121.342,140.161c0,124.99-94.716,137.502-126.688,216.156
	c-2.104,5.178-7.163,8.542-12.752,8.542h-60.643c-5.589,0-10.648-3.365-12.752-8.542C168.388,297.71,73.673,285.197,73.673,160.207
	c0-91.012,69.742-140.161,121.343-140.161C195.016,20.046,291.854,20.046,291.854,20.046z"/>
<path style="fill:#D77458;" d="M291.854,20.046c51.6,0,121.342,49.149,121.342,140.161c0,124.99-94.716,137.502-126.688,216.156
	c-2.104,5.178-7.163,8.542-12.752,8.542h-60.643c-5.589,0-10.648-3.365-12.752-8.542C168.388,297.71,73.673,285.197,73.673,160.207
	c0-91.012,69.742-140.161,121.343-140.161C195.016,20.046,291.854,20.046,291.854,20.046z"/>
<path style="opacity:0.1;enable-background:new    ;" d="M344.582,38.007c-1.843-2.039-3.754-3.996-5.717-5.889
	c-15.776-7.984-32.146-12.072-47.012-12.072h-96.838c-14.866,0-31.236,4.088-47.012,12.072c-1.963,1.893-3.874,3.85-5.717,5.889
	c-27.917,30.882-40.944,78.112-35.74,129.578c6.69,66.168,37.875,104.032,65.389,137.438c22.497,27.314,40.268,48.891,40.281,79.849
	c0.297,0.019,0.595,0.034,0.896,0.034h60.643c0.301,0,0.599-0.014,0.896-0.034c0.013-30.958,17.783-52.535,40.281-79.849
	c27.514-33.406,58.699-71.27,65.389-137.438C385.526,116.119,372.499,68.89,344.582,38.007z"/>
<path style="fill:#FDBA6D;" d="M263.931,384.906c0-75.427,93.904-101.488,105.725-218.399C377.993,84.051,338.485,7.5,243.434,7.5
	S108.876,84.051,117.213,166.507c11.821,116.911,105.725,142.972,105.725,218.399H263.931z"/>
<path style="fill:#A67875;" d="M294.039,446.118H192.83c-3.446,0-6.24-2.794-6.24-6.24v-9.187c0-3.446,2.794-6.24,6.24-6.24h101.209
	c3.446,0,6.24,2.794,6.24,6.24v9.187C300.279,443.325,297.485,446.118,294.039,446.118z"/>
<path style="opacity:0.1;enable-background:new    ;" d="M294.039,424.452h-11.001c3.446,0,6.24,2.794,6.24,6.24v9.187
	c0,3.446-2.794,6.24-6.24,6.24h11.001c3.446,0,6.24-2.794,6.24-6.24v-9.187C300.279,427.245,297.485,424.452,294.039,424.452z"/>
<path style="fill:#A67875;" d="M293.423,446.118h-99.976v41.158c0,9.512,7.711,17.224,17.224,17.224H276.2
	c9.512,0,17.224-7.711,17.224-17.224v-41.158H293.423z"/>
<path style="opacity:0.1;enable-background:new    ;" d="M193.446,446.118v13.254h86.635v27.904c0,9.512-7.711,17.224-17.224,17.224
	h13.341c9.512,0,17.224-7.711,17.224-17.224v-41.158H193.446z"/>
<path style="fill:#445258;" d="M243.434,182.715L243.434,182.715c-13.521,0-24.481-10.961-24.481-24.481V140.3
	c0-3.607,2.924-6.532,6.532-6.532h35.898c3.608,0,6.532,2.924,6.532,6.532v17.933C267.916,171.754,256.955,182.715,243.434,182.715z
	"/>
<path style="fill:#69BFE2;" d="M157.045,261.292c-5.687-17.913-22.446-30.895-42.242-30.895c-23.141,0-42.129,17.74-44.132,40.361
	c-9.96,1.849-17.507,10.567-17.507,21.063c0,11.84,9.598,21.439,21.439,21.439h78.343c14.439,0,26.145-11.706,26.145-26.145
	C179.092,274.07,169.538,263.259,157.045,261.292z"/>
<path style="opacity:0.1;enable-background:new    ;" d="M157.045,261.292c-5.687-17.913-22.446-30.895-42.242-30.895
	c-1.496,0-2.974,0.077-4.432,0.222c17.857,1.752,32.603,14.097,37.865,30.673c12.492,1.967,22.047,12.778,22.047,25.823
	c0,14.439-11.706,26.145-26.145,26.145h8.809c14.439,0,26.145-11.706,26.145-26.145C179.092,274.07,169.538,263.259,157.045,261.292
	z"/>
<path d="M158.398,125.148c-4.143,0-7.5,3.358-7.5,7.5v14.503c0,4.142,3.357,7.5,7.5,7.5s7.5-3.358,7.5-7.5v-14.503
	C165.898,128.506,162.541,125.148,158.398,125.148z M445.809,183.113c-4.769-11.1-13.908-19.873-25.129-24.237
	c-0.356-49.699-20.476-82.729-37.389-101.73c-20.573-23.114-48.247-38.855-76.079-43.324C288.706,4.712,267.208,0,243.435,0
	c-23.896,0-45.356,4.743-63.793,13.826c-27.827,4.472-55.494,20.211-76.064,43.321c-17.064,19.171-37.405,52.613-37.405,103.06
	c0,28.551,4.789,53.304,14.594,75.46c-0.346,0.302-0.697,0.598-1.036,0.91c-8.232,7.578-13.735,17.501-15.811,28.355
	c-10.843,4.296-18.256,14.855-18.256,26.889c0,15.957,12.981,28.939,28.938,28.939h75.777
	c16.469,16.046,33.063,33.906,43.032,58.428c3.265,8.029,10.997,13.218,19.701,13.218h2.324v24.546h-22.607
	c-7.576,0-13.74,6.164-13.74,13.74v9.187c0,5.067,2.764,9.49,6.856,11.873v35.525c0,13.633,11.091,24.724,24.724,24.724h65.529
	c13.633,0,24.724-11.091,24.724-24.724v-35.525c4.092-2.382,6.856-6.806,6.856-11.873v-9.187c0-7.576-6.164-13.74-13.74-13.74
	H271.43v-24.546h2.325c8.703,0,16.436-5.189,19.7-13.218c9.481-23.324,24.967-40.573,40.289-55.738
	c2.943-2.914,2.968-7.663,0.054-10.606c-2.913-2.943-7.662-2.968-10.607-0.055c-16.457,16.289-33.133,34.923-43.633,60.751
	c-0.954,2.349-3.232,3.866-5.804,3.866h-1.959c2.691-28.322,20.392-49.835,40.65-74.43c27.224-33.053,58.079-70.517,64.672-135.714
	c4.847-47.936-6.353-92.054-30.799-122.25c9.365,6.049,18.106,13.5,25.768,22.108c15.332,17.226,33.609,47.359,33.609,93.087
	c0,28.51-4.998,50.724-13.088,69.156c-0.421,0.647-0.741,1.363-0.947,2.127c-10.889,23.725-26.955,41.129-44,57.754
	c-2.966,2.892-3.025,7.641-0.133,10.606c1.47,1.507,3.419,2.263,5.37,2.263c1.888,0,3.777-0.708,5.235-2.131
	c16.963-16.545,33.705-34.633,45.598-59.036h32.982c16.335,0,29.625-13.29,29.625-29.625
	C466.339,198.201,457.937,186.974,445.809,183.113z M152.947,305.76H74.604c-7.686,0-13.938-6.253-13.938-13.939
	c0-6.708,4.784-12.465,11.376-13.689c3.31-0.614,5.805-3.359,6.102-6.712c0.991-11.195,6.814-20.771,15.326-26.789
	c0.555-0.281,1.057-0.625,1.509-1.014c5.723-3.633,12.524-5.72,19.827-5.72c6.599,0,12.859,1.731,18.287,4.827
	c0.245,0.165,0.498,0.314,0.759,0.449c7.464,4.498,13.263,11.619,16.047,20.389c0.859,2.708,3.176,4.698,5.982,5.14
	c9.104,1.434,15.713,9.178,15.713,18.414C171.592,297.396,163.228,305.76,152.947,305.76z M213.113,377.406
	c-2.571,0-4.851-1.518-5.805-3.866c-9.538-23.464-24.12-40.978-39.263-56.372c4.209-2.123,7.917-5.097,10.887-8.706
	c18.319,22.373,33.65,42.748,36.139,68.944H213.113z M285.923,487.276c0,5.362-4.362,9.724-9.724,9.724H210.67
	c-5.361,0-9.724-4.362-9.724-9.724v-33.658h84.977V487.276z M292.779,431.952v6.667H194.09v-6.667H292.779z M230.438,416.952
	v-24.546h25.993v24.546H230.438z M362.194,165.752c-6.136,60.677-35.457,96.277-61.326,127.687
	c-21.298,25.858-41.486,50.384-44.135,83.966h-26.597c-2.65-33.583-22.839-58.112-44.138-83.972l-0.007-0.009
	c0.39-2.045,0.602-4.153,0.602-6.311c0-15.11-9.811-28.009-23.898-32.216c-4.083-9.914-11.012-18.076-19.653-23.68
	c-9.954-20.39-15.975-41.828-18.365-65.467c-1.861-18.408-1.249-36.184,1.82-52.836c0.751-4.074-1.943-7.984-6.017-8.735
	c-4.076-0.748-7.984,1.943-8.735,6.017c-3.326,18.046-3.996,37.245-1.992,57.063c2.025,20.022,6.48,38.596,13.522,56.329
	c-2.765-0.452-5.593-0.693-8.469-0.693c-7.411,0-14.633,1.575-21.249,4.552c-8.316-19.68-12.382-41.763-12.382-67.242
	c0-45.729,18.277-75.861,33.609-93.087c7.645-8.588,16.362-16.025,25.702-22.066c-6.721,8.287-12.499,17.652-17.244,28.051
	c-1.72,3.768-0.059,8.217,3.71,9.936c3.771,1.72,8.217,0.057,9.937-3.71c9.055-19.845,22.257-35.448,39.24-46.374
	C194.65,21.042,217.295,15,243.435,15c21.812,0,41.006,4.119,57.419,12.282c0.504,0.34,1.051,0.627,1.639,0.839
	c10.767,5.596,20.311,12.965,28.573,22.105C355.534,77.294,366.881,119.402,362.194,165.752z M436.714,225.947h-26.638
	c5.282-14.533,8.898-31.163,10.134-50.627c6.006,3.729,10.637,9.53,12.824,16.419c0.859,2.708,3.176,4.697,5.982,5.139
	c7.141,1.124,12.323,7.199,12.323,14.444C451.339,219.386,444.778,225.947,436.714,225.947z M261.384,126.269h-35.898
	c-7.737,0-14.032,6.294-14.032,14.032v17.934c0,17.634,14.347,31.981,31.981,31.981c17.635,0,31.981-14.347,31.981-31.981V140.3
	C275.416,132.563,269.121,126.269,261.384,126.269z M260.416,158.234c0,9.363-7.618,16.981-16.981,16.981
	s-16.981-7.618-16.981-16.981v-16.965h33.963v16.965H260.416z M320.971,132.648v14.503c0,4.142,3.357,7.5,7.5,7.5
	c4.142,0,7.5-3.358,7.5-7.5v-14.503c0-4.142-3.358-7.5-7.5-7.5C324.328,125.148,320.971,128.506,320.971,132.648z"/>
<g>
</g>
<g>
</g>
<g>
</g>
<g>
</g>
<g>
</g>
<g>
</g>
<g>
</g>
<g>
</g>
<g>
</g>
<g>
</g>
<g>
</g>
<g>
</g>
<g>
</g>
<g>
</g>
<g>
</g>
</svg>
