<?xml version="1.0" encoding="iso-8859-1"?>
<!-- Generator: Adobe Illustrator 19.0.0, SVG Export Plug-In . SVG Version: 6.00 Build 0)  -->
<svg version="1.1" id="Capa_1" xmlns="http://www.w3.org/2000/svg" xmlns:xlink="http://www.w3.org/1999/xlink" x="0px" y="0px"
	 viewBox="0 0 512 512" style="enable-background:new 0 0 512 512;" xml:space="preserve">
<circle style="fill:#FFDA44;" cx="256" cy="167.5" r="160"/>
<path style="fill:#FFA733;" d="M120,167.5c0-84.329,65.24-153.416,148-159.553c-3.962-0.294-7.963-0.447-12-0.447
	c-88.366,0-160,71.634-160,160s71.634,160,160,160c4.037,0,8.038-0.153,12-0.447C185.24,320.916,120,251.829,120,167.5z"/>
<path style="fill:#F490C0;" d="M96.76,168.5h94.48c-4,22-23.64,39.5-47.24,39.5S100.76,190.5,96.76,168.5z"/>
<path style="fill:#ED539D;" d="M124.09,203.601c-14.093-6.54-24.534-19.721-27.33-35.101H120L124.09,203.601z"/>
<ellipse style="fill:#F490C0;" cx="256" cy="167.5" rx="64" ry="160"/>
<path style="fill:#FFDA44;" d="M192.56,168.5h126.88c-4.16,31-30.97,55.5-63.44,55.5S196.72,199.5,192.56,168.5z"/>
<path style="fill:#F490C0;" d="M415.24,168.5c-4,22-23.64,39.5-47.24,39.5s-43.24-17.5-47.24-39.5H415.24z"/>
<rect x="216" y="439.5" style="fill:#CC6D1B;" width="80" height="64"/>
<rect x="216" y="439.5" style="fill:#9A4C00;" width="16" height="64"/>
<path d="M440,63.5v-15h-66.757c-30.236-30-71.636-48-117.243-48c-56.891,0-107.239,28-137.527,72H32v15h77.152
	c-8.299,15-14.337,31-17.668,49H32v15h57.313c-0.533,5-0.813,10.683-0.813,16.25c0,37.288,12.253,71.89,32.936,99.753l89.93,164.997
	H192v15h16v64h95v-64h17v-15h-19.366l89.93-164.997c20.683-27.863,32.936-62.465,32.936-99.753c0-39.494-13.748-76.25-36.698-104.25
	H440z M256,15c13.62,0,27.577,15.612,38.291,42.398c11.037,27.593,17.412,64.102,18.138,103.102H199.571
	c0.726-39,7.101-75.509,18.138-103.102C228.423,30.612,242.38,15,256,15z M221.406,360.5l-10.38-31.39
	c14.318,3.996,29.399,6.015,44.974,6.015s30.657-1.957,44.974-5.953l-10.38,31.328H221.406z M285.594,375.5l-19,57h-21.188l-19-57
	H285.594z M256,320c-13.62,0-27.577-15.362-38.291-42.148c-8.091-20.227-13.676-45.124-16.368-72.328
	C214.467,221.088,234.094,231,256,231s41.533-9.912,54.659-25.476c-2.692,27.204-8.277,52.101-16.368,72.328
	C283.577,304.638,269.62,320,256,320z M201.679,175.5H310.32c-6.756,23-28.542,41-54.321,41
	C230.221,216.5,208.435,198.5,201.679,175.5z M104.395,151.5H144v-15h-37.221c12.254-59,57.699-104.391,115.505-117.487
	c-6.875,8.342-13.118,19.229-18.503,32.689c-11.672,29.18-18.421,67.12-19.204,107.798H184.5c0,0.167-0.011,0-0.013,1h-80.801
	C103.833,156.5,104.074,153.5,104.395,151.5z M181.41,175.5c-6.098,14-20.568,25-37.41,25s-31.312-11-37.41-25H181.41z
	 M107.222,201.028C117.023,209.718,129.906,215,144,215c16.501,0,31.336-7.249,41.512-18.72c2.326,32.762,8.611,62.996,18.27,87.143
	c5.385,13.461,11.628,24.472,18.503,32.814C165.153,303.293,120.095,258.185,107.222,201.028z M158.376,303.777
	c10.726,7.72,22.399,14.325,34.806,19.363l12.412,37.36h-16.415L158.376,303.777z M197.361,375.5h13.233l19,57h-1.142L197.361,375.5
	z M288,496.5h-65v-49h65V496.5z M283.548,432.5h-1.142l19-57h13.233L283.548,432.5z M322.82,360.5h-16.415l12.412-37.485
	c12.408-5.038,24.08-11.393,34.807-19.113L322.82,360.5z M289.716,316.237c6.875-8.342,13.118-19.354,18.503-32.814
	c9.659-24.147,15.944-54.381,18.27-87.143C336.664,207.751,351.499,215,368,215c14.094,0,26.977-5.282,36.778-13.972
	C391.905,258.185,346.847,303.293,289.716,316.237z M368,200.5c-16.842,0-31.312-11-37.41-25h74.82
	C399.312,189.5,384.842,200.5,368,200.5z M408.314,160.5h-80.801c-0.002-1-0.013-0.833-0.013-1h-0.078
	c-0.784-40.678-7.532-78.743-19.204-107.923c-5.385-13.461-11.628-24.222-18.503-32.564C355.279,33.867,404.947,90.5,408.314,160.5z
	"/>
<g>
	<rect x="144" y="80.5" style="fill:#FFFFFF;" width="16" height="15"/>
	<rect x="376" y="128.5" style="fill:#FFFFFF;" width="16" height="15"/>
	<rect x="360" y="112.5" style="fill:#FFFFFF;" width="16" height="15"/>
</g>
<rect x="456" y="48.5" width="16" height="15"/>
<rect x="432" y="112.5" width="80" height="15"/>
<rect y="136.5" width="16" height="15"/>
<g>
</g>
<g>
</g>
<g>
</g>
<g>
</g>
<g>
</g>
<g>
</g>
<g>
</g>
<g>
</g>
<g>
</g>
<g>
</g>
<g>
</g>
<g>
</g>
<g>
</g>
<g>
</g>
<g>
</g>
</svg>
