<svg id="Layer_1" enable-background="new 0 0 512.012 512.012" height="512" viewBox="0 0 512.012 512.012" width="512" xmlns="http://www.w3.org/2000/svg"><path d="m385.635 281.865-71.85 86.98c-3.04 3.68-7.563 5.81-12.336 5.81h-28.884c63.578-97.541 90.059-220.535 18.21-313.91-.397-1.323 24.773-5.323 49.65-30.11 90.181 52.289 110.758 171.922 45.21 251.23z" fill="#71a2e6"/><path d="m318.085 107.705c48.76 117.49-29.87 242.94-45.52 266.95h-33.1c-63.578-97.54-90.059-220.535-18.21-313.91.241-.841 29.644 11.873 69.43-.3.415 1.384 15.395 18.361 27.4 47.26z" fill="#fac560"/><path d="m239.465 374.655h-28.884c-4.773 0-9.296-2.131-12.336-5.81l-71.851-86.98c-65.388-79.087-45.044-198.48 44.69-250.93 14.01 13.86 31.27 24.09 50.19 29.74l-.02.07c-71.859 93.389-45.35 216.396 18.211 313.91z" fill="#f88099"/><path d="m399.985 261.615c-23.04 13.98-52.48 27.53-87.62 34.98 31.458-82.404 31.572-166.76-21.59-235.85-.397-1.323 24.773-5.323 49.65-30.11 81.822 47.441 107.444 151.586 59.56 230.98z" fill="#aac7f0"/><path d="m312.365 296.595c-36.146 7.659-74.775 8.022-112.69.01-58.648-149.708 20.573-232.342 21.6-235.93 22.362 6.676 46.554 6.762 69.41-.23 1.656 5.517 79.743 84.055 21.68 236.15z" fill="#fcdca0"/><path d="m199.675 296.605c-35.13-7.44-64.57-20.99-87.62-34.96-48.138-79.893-21.813-183.457 59.03-230.71 14.01 13.86 31.27 24.09 50.19 29.74-1.06 3.703-80.227 86.277-21.6 235.93z" fill="#fbb3c2"/><path d="m340.425 30.635c-46.61 46.442-122.237 46.898-169.34.3 52.114-30.47 117.108-30.586 169.34-.3z" fill="#f5f7fa"/><path d="m202.983 438.1h105.729v49.91c0 8.837-7.163 16-16 16h-73.729c-8.837 0-16-7.163-16-16z" fill="#e7603f"/><path d="m282.495 374.655v19.19c0 4.418-3.582 8-8 8h-36.96c-4.418 0-8-3.582-8-8v-19.19z" fill="#414754"/><path d="m345.289 24.289c-.532-.409-1.103-.745-1.699-1.001-54.012-30.98-120.687-31.044-174.745-.227-1.319.354-2.566 1.043-3.597 2.081-.101.101-85.232 46.493-85.232 150.126 0 40.642 14.279 80.309 40.208 111.694l74.826 90.572v126.478c0 4.418 3.582 8 8 8h105.932c4.418 0 8-3.582 8-8v-126.477l74.826-90.572c68.187-82.539 47.6-207.279-46.519-262.674zm-18.723 8.068c-41.567 33.819-100.414 33.536-141.614.253 44.497-22.048 97.023-22.15 141.614-.253zm-194.007 244.414c-60.355-73.055-44.599-183.548 37.537-235.794 11.328 10.118 24.4 18.107 38.436 23.66-11.917 17.148-20.974 35.202-27.32 54.344-1.391 4.194.883 8.721 5.076 10.111 4.186 1.389 8.719-.877 10.111-5.076 6.174-18.632 15.374-36.816 28.091-54.222 20.819 5.259 42.465 5.144 62.982-.09 65.423 89.445 38.436 205.87-19.275 296.954h-24.366c-17.973-28.33-54.423-94.362-57.43-167.808-.181-4.415-3.911-7.863-8.32-7.666-4.415.181-7.847 3.906-7.666 8.32 2.888 70.522 34.825 134.133 54.623 167.153h-18.22zm141.938 105.886v11.189h-36.965v-11.189zm26.484 113.355h-89.932v-16.957h63.173c4.418 0 8-3.582 8-8s-3.582-8-8-8h-63.173v-16.957h89.932zm0-65.914h-89.932v-47.441h10.483v19.189c0 4.418 3.582 8 8 8h52.965c4.418 0 8-3.582 8-8v-19.189h10.483v47.441zm78.49-153.327-74.258 89.886h-18.209c57.701-95.954 79.89-210.951 16.393-302.164 13.858-5.568 26.728-13.575 38.057-23.814 82.152 51.85 98.777 162.546 38.017 236.092z"/><path d="m172.475 164.792c2.498 5.994 10.584 6.602 14.03 1.381 2.48-3.694 1.434-8.691-2.211-11.091-6.58-4.442-14.814 2.538-11.819 9.71z"/></svg>