<?xml version="1.0" encoding="iso-8859-1"?>
<!-- Generator: Adobe Illustrator 19.0.0, SVG Export Plug-In . SVG Version: 6.00 Build 0)  -->
<svg version="1.1" id="Layer_1" xmlns="http://www.w3.org/2000/svg" xmlns:xlink="http://www.w3.org/1999/xlink" x="0px" y="0px"
	 viewBox="0 0 512 512" style="enable-background:new 0 0 512 512;" xml:space="preserve">
<path style="fill:#FF9940;" d="M272.821,504.115h-33.643c-18.58,0-33.643-15.062-33.643-33.643v-46.259h100.928v46.259
	C306.464,489.053,291.402,504.115,272.821,504.115z"/>
<path style="fill:#F5760F;" d="M230.768,470.472v-46.259h-25.232v46.259c0,18.58,15.062,33.643,33.643,33.643h25.232
	C245.83,504.115,230.768,489.053,230.768,470.472z"/>
<rect x="184.509" y="403.187" style="fill:#FFD042;" width="142.982" height="25.232"/>
<rect x="184.509" y="403.187" style="fill:#FFC412;" width="25.232" height="25.232"/>
<path style="fill:#EDECEB;" d="M239.179,457.856c0-9.291,16.821-29.437,16.821-29.437s16.821,20.147,16.821,29.437
	c0,9.291-7.531,16.821-16.821,16.821S239.179,467.147,239.179,457.856z"/>
<path style="fill:#DBD9D7;" d="M251.795,457.856c0-5.427,5.739-14.556,10.513-21.212c-3.398-4.737-6.308-8.226-6.308-8.226
	s-16.821,20.148-16.821,29.437c0,9.29,7.531,16.821,16.821,16.821c2.233,0,4.359-0.445,6.308-1.234
	C256.146,470.946,251.795,464.914,251.795,457.856z"/>
<path style="fill:#EDECEB;" d="M289.643,457.856c0-9.291,16.821-29.437,16.821-29.437s16.821,20.147,16.821,29.437
	c0,9.291-7.531,16.821-16.821,16.821S289.643,467.147,289.643,457.856z"/>
<path style="fill:#DBD9D7;" d="M302.259,457.856c0-5.427,5.739-14.556,10.513-21.212c-3.398-4.737-6.308-8.226-6.308-8.226
	s-16.821,20.148-16.821,29.437c0,9.29,7.531,16.821,16.821,16.821c2.233,0,4.359-0.445,6.308-1.234
	C306.61,470.946,302.259,464.914,302.259,457.856z"/>
<path style="fill:#EDECEB;" d="M222.357,457.856c0-9.291-16.821-29.437-16.821-29.437s-16.821,20.147-16.821,29.437
	c0,9.291,7.531,16.821,16.821,16.821C214.827,474.678,222.357,467.147,222.357,457.856z"/>
<path style="fill:#DBD9D7;" d="M201.331,457.856c0-5.427,5.739-14.556,10.513-21.212c-3.398-4.737-6.308-8.226-6.308-8.226
	s-16.821,20.148-16.821,29.437c0,9.29,7.531,16.821,16.821,16.821c2.233,0,4.359-0.445,6.308-1.234
	C205.682,470.946,201.331,464.914,201.331,457.856z"/>
<path style="fill:#64DDE3;" d="M398.982,150.867C398.982,71.9,334.967,7.885,256,7.885S113.018,71.9,113.018,150.867
	c0,61.2,51.243,95.455,84.107,142.982c10.871,15.722,8.411,54.669,8.411,54.669h100.928c0,0-2.46-38.948,8.411-54.669
	C347.738,246.321,398.982,212.067,398.982,150.867z"/>
<path style="fill:#37C9D4;" d="M222.357,293.848c-32.864-47.527-84.107-81.781-84.107-142.982
	c0-74.714,57.309-136.033,130.366-142.421c-4.158-0.364-8.363-0.56-12.616-0.56c-78.967,0-142.982,64.015-142.982,142.982
	c0,61.2,51.243,95.455,84.107,142.982c10.871,15.722,8.411,54.669,8.411,54.669h25.232
	C230.768,348.517,233.228,309.57,222.357,293.848z"/>
<path style="fill:#FFD042;" d="M344.312,150.867C344.312,71.9,304.774,7.885,256,7.885S167.688,71.9,167.688,150.867
	c0,61.2,31.649,95.455,51.949,142.982c6.715,15.722,5.195,54.669,5.195,54.669h62.338c0,0-1.52-38.948,5.195-54.669
	C312.663,246.321,344.312,212.067,344.312,150.867z"/>
<path style="fill:#64DDE3;" d="M285.437,150.867C285.437,71.9,272.258,7.885,256,7.885S226.563,71.9,226.563,150.867
	c0,61.2,10.55,95.455,17.317,142.982c2.238,15.722,1.732,54.669,1.732,54.669h20.78c0,0-0.507-38.948,1.732-54.669
	C274.887,246.321,285.437,212.067,285.437,150.867z"/>
<rect x="192.92" y="314.875" style="fill:#37C9D4;" width="126.16" height="33.643"/>
<rect x="192.92" y="314.875" style="fill:#0DB4BD;" width="25.232" height="33.643"/>
<path d="M351.907,260.556c27.02-30.993,54.96-63.043,54.96-109.69C406.867,67.679,339.188,0,256,0S105.133,67.679,105.133,150.867
	c0,46.647,27.94,78.696,54.96,109.689c10.519,12.066,21.397,24.543,30.548,37.778c1.062,1.536,2.457,4.197,3.741,8.657h-1.461
	c-4.355,0-7.885,3.53-7.885,7.885v33.643c0,4.355,3.53,7.885,7.885,7.885h21.552v38.899h-29.963c-4.355,0-7.885,3.53-7.885,7.885
	v25.232c0,4.355,3.53,7.885,7.885,7.885h5.324c-4.641,7.044-9.004,15.321-9.004,21.552c0,11.436,7.811,21.079,18.378,23.881
	C204.229,499.601,220.529,512,239.179,512h33.643c18.65,0,34.95-12.399,39.971-30.263c10.567-2.802,18.378-12.445,18.378-23.881
	c0-6.231-4.363-14.508-9.004-21.552h5.324c4.356,0,7.885-3.53,7.885-7.885v-25.232c0-4.355-3.529-7.885-7.885-7.885h-29.963v-38.899
	h21.552c4.356,0,7.885-3.53,7.885-7.885v-33.643c0-4.355-3.529-7.885-7.885-7.885h-1.46c1.284-4.46,2.679-7.121,3.741-8.657
	C330.511,285.1,341.388,272.623,351.907,260.556z M260.315,292.736c-0.499,3.506-0.903,8.3-1.204,14.254h-6.224
	c-0.301-5.953-0.703-10.746-1.203-14.253c-1.955-13.737-4.239-26.455-6.446-38.753c-5.549-30.921-10.791-60.126-10.791-103.117
	c0-35.414,2.7-69.213,7.603-95.171c5.297-28.04,11.448-37.76,13.949-39.701c2.501,1.941,8.651,11.659,13.949,39.701
	c4.903,25.959,7.603,59.757,7.603,95.171c0,42.989-5.241,72.194-10.792,103.114C264.554,266.28,262.271,278.998,260.315,292.736z
	 M230.955,306.99c-0.981-6.803-2.316-12.139-4.068-16.239c-5.947-13.925-12.842-26.73-19.511-39.115
	c-16.356-30.374-31.804-59.066-31.804-100.769c0-36.748,8.768-71.183,24.69-96.96c10.031-16.241,22.071-27.659,35.068-33.544
	c-2.932,7.247-5.537,16.486-7.869,27.81c-5.665,27.514-8.784,63.984-8.784,102.694c0,44.395,5.363,74.272,11.039,105.903
	c2.183,12.161,4.44,24.735,6.355,38.19c0.413,2.9,0.755,6.947,1.024,12.03H230.955z M203.611,289.363
	c-9.653-13.961-20.826-26.776-31.63-39.171c-26.267-30.129-51.077-58.589-51.077-99.326c0-54.472,32.409-101.512,78.954-122.865
	c-4.62,5.2-8.974,11.081-13.012,17.618c-17.438,28.235-27.042,65.612-27.042,105.247c0,45.679,17.126,77.487,33.689,108.246
	c6.503,12.076,13.226,24.562,18.892,37.832c0.743,1.741,1.732,4.82,2.61,10.044h-4.356
	C208.971,299.58,206.669,293.785,203.611,289.363z M205.538,441.342c5.097,7.165,8.91,14.03,8.934,16.515
	c0,4.928-4.009,8.935-8.936,8.935c-4.928,0-8.936-4.009-8.936-8.935C196.624,455.379,200.439,448.513,205.538,441.342z
	 M306.464,466.793c-4.928,0-8.936-4.009-8.936-8.935c0.023-2.478,3.839-9.344,8.939-16.515c5.096,7.165,8.91,14.029,8.933,16.514
	C315.4,462.784,311.392,466.793,306.464,466.793z M296.55,480.48c-3.965,9.427-13.242,15.75-23.729,15.75h-33.643
	c-10.486,0-19.763-6.323-23.729-15.75c8.7-3.828,14.792-12.525,14.792-22.624c0-6.231-4.363-14.508-9.004-21.552h19.059
	c-4.641,7.044-9.004,15.321-9.004,21.552c0,13.623,11.083,24.706,24.706,24.706c13.623,0,24.706-11.083,24.706-24.706
	c0-6.231-4.363-14.508-9.004-21.552h19.059c-4.642,7.044-9.004,15.321-9.004,21.552C281.758,467.954,287.85,476.652,296.55,480.48z
	 M264.936,457.856c0,4.928-4.009,8.936-8.936,8.936c-4.928,0-8.936-4.009-8.936-8.935c0.024-2.478,3.841-9.344,8.938-16.515
	C261.099,448.507,264.913,455.371,264.936,457.856z M319.606,420.534H192.394v-9.462h127.212V420.534z M281.758,395.302h-51.515
	v-38.899h51.515V395.302z M311.195,340.632h-110.39V322.76h110.39V340.632z M297.005,306.99c0.879-5.225,1.867-8.304,2.61-10.044
	c5.668-13.269,12.39-25.756,18.894-37.831c16.562-30.76,33.688-62.567,33.688-108.248c0-13.285-1.089-26.461-3.238-39.163
	c-0.725-4.293-4.785-7.18-9.09-6.459c-4.294,0.726-7.186,4.796-6.459,9.09c2.002,11.835,3.017,24.126,3.017,36.533
	c0,41.704-15.448,70.395-31.805,100.77c-6.668,12.384-13.562,25.19-19.511,39.114c-1.75,4.099-3.087,9.435-4.068,16.239h-6.142
	c0.269-5.083,0.612-9.132,1.025-12.03c1.916-13.456,4.174-26.032,6.356-38.194c5.676-31.63,11.039-61.506,11.039-105.9
	c0-38.71-3.119-75.18-8.784-102.693c-2.315-11.247-4.901-20.436-7.809-27.662c21.63,9.973,40.523,35.107,51.002,69.57
	c1.268,4.167,5.677,6.518,9.837,5.249c4.166-1.267,6.517-5.672,5.25-9.837c-7.142-23.486-17.708-42.995-30.538-57.428
	c46.471,21.385,78.815,68.385,78.815,122.802c0,40.738-24.81,69.197-51.077,99.328c-10.805,12.394-21.976,25.21-31.63,39.17
	c-3.058,4.424-5.361,10.218-7.028,17.626H297.005z"/>
<g>
</g>
<g>
</g>
<g>
</g>
<g>
</g>
<g>
</g>
<g>
</g>
<g>
</g>
<g>
</g>
<g>
</g>
<g>
</g>
<g>
</g>
<g>
</g>
<g>
</g>
<g>
</g>
<g>
</g>
</svg>
