<?xml version="1.0" encoding="iso-8859-1"?>
<!-- Generator: Adobe Illustrator 19.0.0, SVG Export Plug-In . SVG Version: 6.00 Build 0)  -->
<svg version="1.1" id="Layer_1" xmlns="http://www.w3.org/2000/svg" xmlns:xlink="http://www.w3.org/1999/xlink" x="0px" y="0px"
	 viewBox="0 0 512 512" style="enable-background:new 0 0 512 512;" xml:space="preserve">
<path style="fill:#FF9940;" d="M306.361,415.475H205.639c-4.635,0-8.393,3.758-8.393,8.393v46.164
	c0,23.141,18.826,41.967,41.967,41.967h33.574c23.141,0,41.967-18.826,41.967-41.967v-46.164
	C314.754,419.234,310.996,415.475,306.361,415.475z"/>
<path style="fill:#F5760F;" d="M214.033,470.033v-46.164c0-4.635,3.758-8.393,8.393-8.393h-16.787c-4.635,0-8.393,3.758-8.393,8.393
	v46.164c0,23.141,18.826,41.967,41.967,41.967H256C232.859,512,214.033,493.173,214.033,470.033z"/>
<g>
	<path style="fill:#928D86;" d="M289.574,432.262c-4.635,0-8.393-3.758-8.393-8.393v-75.541c0-4.635,3.758-8.393,8.393-8.393
		s8.393,3.758,8.393,8.393v75.541C297.967,428.504,294.209,432.262,289.574,432.262z"/>
	<path style="fill:#928D86;" d="M222.426,432.262c-4.635,0-8.393-3.758-8.393-8.393v-75.541c0-4.635,3.758-8.393,8.393-8.393
		c4.635,0,8.393,3.758,8.393,8.393v75.541C230.82,428.504,227.061,432.262,222.426,432.262z"/>
</g>
<path style="fill:#FFD042;" d="M318.951,432.262H193.049c-4.635,0-8.393-3.758-8.393-8.393v-8.393c0-4.635,3.758-8.393,8.393-8.393
	h125.902c4.635,0,8.393,3.758,8.393,8.393v8.393C327.344,428.504,323.586,432.262,318.951,432.262z"/>
<path style="fill:#FFC412;" d="M201.443,423.869v-8.393c0-4.635,3.758-8.393,8.393-8.393h-16.787c-4.635,0-8.393,3.758-8.393,8.393
	v8.393c0,4.635,3.758,8.393,8.393,8.393h16.787C205.201,432.262,201.443,428.504,201.443,423.869z"/>
<path style="fill:#EDECEB;" d="M239.213,461.639c0-7.479,10.922-22.005,15.146-27.345c0.839-1.061,2.443-1.061,3.281,0
	c4.225,5.339,15.147,19.866,15.147,27.345c0,9.272-7.515,16.787-16.787,16.787C246.728,478.426,239.213,470.911,239.213,461.639z"/>
<path style="fill:#DBD9D7;" d="M260.197,474.229c-9.272,0-16.787-7.516-16.787-16.787c0-6.219,7.549-17.305,12.522-23.936
	c-0.588,0.019-1.169,0.277-1.573,0.788c-4.224,5.339-15.146,19.866-15.146,27.345c0,9.271,7.515,16.787,16.787,16.787
	c5.708,0,10.743-2.855,13.776-7.208C267.058,473.112,263.76,474.229,260.197,474.229z"/>
<path style="fill:#EDECEB;" d="M297.967,461.639c0-7.479,10.922-22.005,15.146-27.345c0.839-1.061,2.443-1.061,3.281,0
	c4.225,5.339,15.147,19.866,15.147,27.345c0,9.272-7.515,16.787-16.787,16.787S297.967,470.911,297.967,461.639z"/>
<path style="fill:#DBD9D7;" d="M318.951,474.229c-9.272,0-16.787-7.516-16.787-16.787c0-6.219,7.549-17.305,12.522-23.936
	c-0.588,0.019-1.169,0.277-1.573,0.788c-4.224,5.339-15.146,19.866-15.146,27.345c0,9.271,7.515,16.787,16.787,16.787
	c5.708,0,10.743-2.855,13.776-7.208C325.812,473.112,322.514,474.229,318.951,474.229z"/>
<path style="fill:#EDECEB;" d="M214.033,461.639c0-7.479-10.922-22.005-15.146-27.345c-0.839-1.061-2.443-1.061-3.281,0
	c-4.225,5.339-15.147,19.866-15.147,27.345c0,9.272,7.515,16.787,16.787,16.787C206.518,478.426,214.033,470.911,214.033,461.639z"
	/>
<path style="fill:#DBD9D7;" d="M201.443,474.229c-9.272,0-16.787-7.516-16.787-16.787c0-6.219,7.549-17.305,12.522-23.936
	c-0.588,0.019-1.169,0.277-1.573,0.788c-4.224,5.339-15.146,19.866-15.146,27.345c0,9.271,7.515,16.787,16.787,16.787
	c5.708,0,10.743-2.855,13.776-7.208C208.304,473.112,205.006,474.229,201.443,474.229z"/>
<path style="fill:#64DDE3;" d="M256,0c-83.307,0-151.082,67.775-151.082,151.082c0,46.747,27.948,78.805,54.975,109.809
	c10.489,12.031,21.333,24.471,30.448,37.653c6.676,9.656,7.788,35.337,6.92,49.255c-0.147,2.313,0.67,4.584,2.257,6.274
	s3.803,2.648,6.121,2.648h100.721c2.318,0,4.532-0.959,6.119-2.648c1.587-1.69,2.404-3.961,2.258-6.274
	c-0.879-13.903,0.223-39.57,6.92-49.254c9.115-13.182,19.96-25.622,30.448-37.653c27.028-31.004,54.976-63.063,54.976-109.81
	C407.082,67.775,339.307,0,256,0z"/>
<path style="fill:#38CED9;" d="M218.246,347.799c0.868-13.917-0.244-39.599-6.92-49.255c-9.115-13.182-19.961-25.622-30.448-37.653
	c-27.028-31.004-54.976-63.062-54.976-109.809c0-79.78,62.16-145.305,140.59-150.712C263.024,0.131,259.527,0,256,0
	c-83.307,0-151.082,67.775-151.082,151.082c0,46.747,27.948,78.805,54.975,109.809c10.489,12.031,21.333,24.471,30.448,37.653
	c6.676,9.656,7.788,35.337,6.92,49.255c-0.147,2.313,0.67,4.584,2.257,6.274s3.803,2.648,6.121,2.648h20.984
	c-2.318,0-4.532-0.959-6.12-2.648C218.916,352.384,218.099,350.112,218.246,347.799z"/>
<path style="fill:#FFD042;" d="M325.459,45.775C307.227,16.257,282.559,0,256,0s-51.227,16.257-69.46,45.775
	c-17.452,28.259-27.065,65.657-27.065,105.307c0,45.718,17.123,77.519,33.682,108.272c6.484,12.041,13.188,24.492,18.835,37.713
	c4.88,11.426,4.914,40.641,4.516,50.935c-0.088,2.281,0.756,4.5,2.339,6.144s3.767,2.575,6.049,2.575h62.21
	c2.283,0,4.466-0.931,6.05-2.575c1.582-1.645,2.427-3.864,2.339-6.145c-0.399-10.294-0.365-39.509,4.516-50.935
	c5.647-13.221,12.35-25.671,18.834-37.712c16.559-30.753,33.682-62.554,33.682-108.272
	C352.525,111.431,342.913,74.033,325.459,45.775z"/>
<path style="fill:#64DDE3;" d="M284.994,48.493C278.183,15.409,268.969,0,256,0c-12.969,0-22.183,15.409-28.994,48.493
	c-5.659,27.491-8.776,63.923-8.776,102.589c0,44.35,5.355,74.188,11.025,105.777c2.178,12.132,4.43,24.676,6.339,38.094
	c2.116,14.866,1.649,52.883,1.644,53.266c-0.028,2.245,0.842,4.408,2.419,6.006c1.577,1.597,3.729,2.497,5.973,2.497h20.737
	c2.245,0,4.396-0.899,5.973-2.497c1.577-1.598,2.449-3.76,2.419-6.006c-0.005-0.382-0.471-38.4,1.644-53.266
	c1.911-13.42,4.162-25.965,6.34-38.098c5.672-31.588,11.027-61.424,11.027-105.773C293.77,112.417,290.653,75.984,284.994,48.493z"
	/>
<path style="fill:#38CED9;" d="M318.951,314.754H193.049c-4.635,0-8.393,3.758-8.393,8.393v33.574c0,4.635,3.758,8.393,8.393,8.393
	h125.902c4.635,0,8.393-3.758,8.393-8.393v-33.574C327.344,318.512,323.586,314.754,318.951,314.754z"/>
<path style="fill:#0EBEC7;" d="M205.639,356.721v-33.574c0-4.635,3.758-8.393,8.393-8.393h-20.984c-4.635,0-8.393,3.758-8.393,8.393
	v33.574c0,4.635,3.758,8.393,8.393,8.393h20.984C209.397,365.115,205.639,361.357,205.639,356.721z"/>
<g>
</g>
<g>
</g>
<g>
</g>
<g>
</g>
<g>
</g>
<g>
</g>
<g>
</g>
<g>
</g>
<g>
</g>
<g>
</g>
<g>
</g>
<g>
</g>
<g>
</g>
<g>
</g>
<g>
</g>
</svg>
