<svg id="Capa_1" enable-background="new 0 0 512 512" height="512" viewBox="0 0 512 512" width="512" xmlns="http://www.w3.org/2000/svg"><path d="m216.039 305.548h-16.796c7.512 39.404 16.478 80.996 25.012 118.932-2.557-4.602-5.173-9.302-7.844-14.101-17.922-32.174-38.393-68.962-56.747-104.831h-18.561c19.061 37.733 40.928 77.051 60.88 112.871 7.887 14.169 15.347 27.548 21.992 39.734l23.556-5.806c-10.212-44.423-21.982-97.342-31.492-146.799z" fill="#ffe09f"/><path d="m90.839 165.161 56.161 108.339 48-6.5 61-267c-91.216 0-165.161 73.945-165.161 165.161z" fill="#95d6a4"/><path d="m132.129 165.161c0 12.183 2.312 27.456 6.289 44.759l77.582 57.08 40-267c-68.412 0-123.871 73.945-123.871 165.161z" fill="#b3e59f"/><path d="m352.336 305.548c-18.354 35.868-38.824 72.657-56.747 104.831-2.671 4.8-5.286 9.499-7.844 14.101 8.534-37.936 17.5-79.528 25.012-118.932h-16.796c-9.51 49.457-21.28 102.376-31.493 146.798l23.556 5.806c6.645-12.185 14.105-25.565 21.992-39.734 19.952-35.82 41.819-75.138 60.88-112.871h-18.56z" fill="#fff5d7"/><path d="m256 0 103.863 302.257 9.697-3.304 51.602-133.793c-.001-91.215-73.946-165.16-165.162-165.16z" fill="#b3e59f"/><path d="m400.516 198.194c-11.402 0-20.645-14.789-20.645-33.032h-33.032l-6.103 148.645h23.095c3.152 0 6.048-1.805 7.439-4.634 27.908-56.767 49.892-111.414 49.892-144.012-.001 18.243-9.244 33.033-20.646 33.033z" fill="#ffd064"/><path d="m341.911 310.631c21.186-57.288 37.96-112.593 37.96-145.469 0-91.217-55.459-165.162-123.871-165.162l31.76 306.658c17.964 2.354 36.042 3.603 54.151 3.973z" fill="#ccf49f"/><path d="m340.736 313.806c21.739-58.414 39.135-115.161 39.135-148.645 0 18.243-12.941 33.032-28.903 33.032-15.963 0-28.903-14.789-28.903-33.032l-24.774 8.258 3.902 140.387z" fill="#ffe07d"/><path d="m306.5 165.161c0-91.216-14.013-165.161-50.5-165.161-36.486 0-66.064 73.945-66.064 165.161 0 32.519 8.751 86.979 19.876 143.599l92.871-3.075c9.521-55.51 3.817-108.595 3.817-140.524z" fill="#95d6a4"/><path d="m302.337 308.004c11.054-56.348 19.727-110.469 19.727-142.843 0-91.216-29.578-165.161-66.064-165.161v305.991c15.428 1.035 30.876 1.746 46.337 2.013z" fill="#b3e59f"/><path d="m161.032 198.194c-15.963 0-28.903-14.789-28.903-33.032 0 18.243-9.243 33.032-20.645 33.032s-20.645-14.789-20.645-33.032c0 32.598 21.983 87.244 49.892 144.012 1.391 2.829 4.286 4.634 7.439 4.634h23.095l-1.408-117.348c-2.799 1.03-5.726 1.734-8.825 1.734z" fill="#ffc250"/><path d="m189.935 165.161c0 18.243-12.941 33.032-28.903 33.032s-28.903-14.789-28.903-33.032c0 33.484 17.396 90.231 39.135 148.645h39.543l6.45-116.189c-15.51-2.714-27.322-16.169-27.322-32.456z" fill="#ffd064"/><path d="m189.935 165.161c0 18.243 14.789 33.032 33.032 33.032s36.033-14.45 36.033-32.693l-3 148.306h-45.193c-11.594-58.413-20.872-115.161-20.872-148.645z" fill="#ffc250"/><path d="m231.226 445.935-11.059 36.79c0 13.682 5.635 24.774 19.317 24.774h33.032l23.366-12.02c.912-2.582 1.408-5.36 1.408-8.254v-33.29c0-4.418-3.582-8-8-8z" fill="#f6d190"/><path d="m256 495.484c-13.682 0-24.774-11.092-24.774-24.774v-24.774h-8.516c-4.418 0-8 3.582-8 8v33.29c0 13.682 11.092 24.774 24.774 24.774h33.032c10.771 0 19.965-6.916 23.378-16.516z" fill="#ecbd83"/><path d="m322.064 165.161c0 18.243-14.789 33.032-33.032 33.032s-33.032-14.789-33.032-33.032v148.645h45.193c11.594-58.413 20.871-115.161 20.871-148.645z" fill="#ffd064"/><path d="m421.161 156.903c-4.565 0-8.258 3.694-8.258 8.258 0 14.177-6.541 24.774-12.387 24.774s-12.387-10.597-12.387-24.774c0-4.565-3.693-8.258-8.258-8.258s-8.258 3.694-8.258 8.258c0 13.661-9.258 24.774-20.645 24.774s-20.645-11.113-20.645-24.774c0-4.565-3.694-8.258-8.258-8.258s-8.258 3.694-8.258 8.258c0 13.661-11.113 24.774-24.774 24.774s-24.774-11.113-24.774-24.774h-7.34c-.504 6.076-2.947 11.494-5.546 16.894 6.47 14.365 20.912 24.396 37.661 24.396 13.234 0 25.032-6.258 32.597-15.976 6.807 9.718 17.427 15.976 29.339 15.976 11.032 0 20.952-5.371 27.766-13.871 5.258 8.548 13.008 13.871 21.782 13.871 16.21 0 28.903-18.137 28.903-41.29-.002-4.564-3.695-8.258-8.26-8.258z" fill="#fff5d7"/><path d="m222.968 206.452c-13.234 0-25.032-6.258-32.597-15.976-6.806 9.718-17.427 15.976-29.339 15.976-11.032 0-20.952-5.371-27.766-13.871-5.258 8.548-13.008 13.871-21.782 13.871-16.21 0-28.903-18.137-28.903-41.29 0-4.565 3.694-8.258 8.258-8.258s8.258 3.694 8.258 8.258c0 14.177 6.54 24.774 12.387 24.774s12.387-10.597 12.387-24.774c0-4.565 3.694-8.258 8.258-8.258 4.565 0 8.258 3.694 8.258 8.258 0 13.661 9.258 24.774 20.645 24.774s20.645-11.113 20.645-24.774c0-4.565 3.694-8.258 8.258-8.258s8.258 3.694 8.258 8.258c0 13.661 11.113 24.774 24.774 24.774s24.774-11.113 24.774-24.774c0-4.565 3.694-8.258 8.258-8.258 4.565 0 8.258 3.694 8.258 8.258.001 22.765-18.523 41.29-41.289 41.29z" fill="#ffe09f"/></svg>