<svg id="Capa_1" enable-background="new 0 0 511.99 511.99" height="512" viewBox="0 0 511.99 511.99" width="512" xmlns="http://www.w3.org/2000/svg"><g id="XMLID_1376_"><path id="XMLID_1476_" d="m305.78 266.965c-3.026-6.241-4.435-13.411-3.675-20.968 1.816-18.057 15.63-32.207 33.628-34.537 5.55-.718 10.89-.227 15.835 1.197 9.484-11.598 23.902-19.005 40.053-19.005s30.569 7.407 40.053 19.005c4.943-1.423 10.28-1.915 15.827-1.198 17.999 2.326 31.816 16.473 33.635 34.531.762 7.56-.647 14.732-3.674 20.975z" fill="#a0c8ff"/><path id="XMLID_2366_" d="m279.068 501.99h-68.333c-20.895 0-37.833-16.939-37.833-37.833v-50.167h144v50.167c-.001 20.895-16.939 37.833-37.834 37.833z" fill="#f0c980"/><path id="XMLID_2365_" d="m316.901 373.99h-144c-11.046 0-20 8.954-20 20 0 11.046 8.954 20 20 20h144c11.046 0 20-8.954 20-20 0-11.046-8.954-20-20-20z" fill="#f0c980"/><path id="XMLID_2364_" d="m395.401 160.49c0-82.531-66.432-149.546-148.739-150.49-81.892-.939-149.993 64.459-152.205 146.326-1.21 44.79 17.164 85.299 47.174 113.613 18.54 17.492 32.109 39.586 39.269 64.048l.001.002h128c7.112-24.299 20.429-46.392 38.902-63.706 29.292-27.451 47.598-66.479 47.598-109.793z" fill="#ff7a7a"/><path id="XMLID_2363_" d="m141.632 269.939c18.54 17.492 32.109 39.586 39.269 64.048l.001.002h128c7.112-24.299 20.429-46.392 38.902-63.706 4.302-4.032 8.361-8.321 12.166-12.83-12.715 12.688-33.307 12.68-46.012-.024-12.713-12.713-33.324-12.713-46.037 0-12.713 12.713-33.325 12.713-46.037 0-12.713-12.713-33.325-12.713-46.037 0-12.7 12.7-33.28 12.712-45.997.039 3.691 4.376 7.62 8.545 11.782 12.471z" fill="#d5ea7a"/><path id="XMLID_2362_" d="m394.962 171.985c-11.807-11.801-30.946-11.8-42.751.006-11.807 11.807-30.95 11.807-42.757 0-11.807-11.807-30.95-11.807-42.757 0-11.807 11.807-30.95 11.807-42.757 0-11.807-11.807-30.95-11.807-42.757 0-11.807 11.807-30.95 11.807-42.757 0-11.807-11.807-30.95-11.807-42.757 0l-.702 1.56c2.739 31.847 15.404 60.848 34.881 83.919 12.716 12.673 33.297 12.661 45.997-.039 12.713-12.713 33.324-12.713 46.037 0 12.713 12.713 33.325 12.713 46.037 0 12.713-12.713 33.325-12.713 46.037 0 12.705 12.705 33.297 12.712 46.012.024 19.789-23.446 32.541-53.016 34.994-85.47z" fill="#cbf4fb"/><path id="XMLID_2361_" d="m376.015 86.561-.049-.011c-12.064 12.064-31.624 12.064-43.688 0-12.064-12.064-31.624-12.064-43.688 0-12.064 12.064-31.624 12.064-43.688 0-12.064-12.064-31.624-12.064-43.688 0-12.064 12.064-31.624 12.064-43.688 0-12.024-12.024-31.492-12.061-43.566-.116-11.795 20.726-18.816 44.517-19.501 69.893-.137 5.086-.01 10.112.346 15.076l.866.588c11.807-11.807 30.95-11.807 42.757 0 11.807 11.807 30.95 11.807 42.757 0 11.807-11.807 30.95-11.807 42.757 0 11.807 11.807 30.95 11.807 42.757 0 11.807-11.807 30.95-11.807 42.757 0 11.807 11.807 30.95 11.807 42.757 0 11.805-11.805 30.943-11.807 42.751-.006.287-3.794.439-7.626.439-11.494-.002-26.871-7.049-52.094-19.388-73.93z" fill="#ffa76b"/><path id="XMLID_2311_" d="m206.211 333.99c3.026-6.241 4.435-13.41 3.675-20.968-1.816-18.057-15.63-32.207-33.628-34.537-5.55-.718-10.89-.227-15.835 1.197-9.484-11.598-23.902-19.005-40.053-19.005s-30.569 7.407-40.053 19.005c-4.943-1.423-10.28-1.915-15.827-1.198-17.999 2.326-31.816 16.473-33.635 34.531-.762 7.56.647 14.732 3.674 20.975z" fill="#a0c8ff"/><g id="XMLID_234_"><path id="XMLID_598_" d="m491.086 244.989c-2.283-22.657-19.678-40.522-42.303-43.447-4.555-.588-9.101-.543-13.581.131-8.704-8.696-19.713-14.525-31.678-16.863 1.239-8.009 1.877-16.138 1.877-24.319 0-34.648-10.867-67.641-31.425-95.41-20.148-27.216-47.753-47.062-79.83-57.392-5.255-1.69-10.891 1.195-12.584 6.453-1.693 5.257 1.196 10.891 6.453 12.584 31.583 10.172 57.543 30.635 74.696 56.999-7.691 3.462-17.055 2.063-23.362-4.246-7.724-7.724-17.993-11.978-28.915-11.978-10.923 0-21.192 4.254-28.916 11.978-8.146 8.145-21.401 8.146-29.546 0-7.724-7.724-17.993-11.978-28.915-11.978-10.923 0-21.192 4.254-28.916 11.978-3.946 3.946-9.192 6.12-14.773 6.12s-10.827-2.174-14.773-6.12c-6.843-6.843-15.686-10.956-25.21-11.806 17.106-19.406 39.668-34.189 65.85-41.945 5.295-1.568 8.316-7.133 6.748-12.428-1.569-5.297-7.133-8.32-12.429-6.748-32.233 9.548-60.294 28.683-81.148 55.334-21.278 27.193-33.016 59.757-33.946 94.171-.927 34.318 8.914 67.363 28.017 95.141-13.508 1.727-26.02 7.839-35.689 17.5-4.478-.674-9.024-.719-13.581-.131-22.625 2.923-40.021 20.788-42.303 43.445-.917 9.101.683 18.209 4.626 26.341 1.672 3.447 5.167 5.637 8.998 5.637h136.372v20.074c-15.612 1.033-28 14.057-28 29.926 0 13.036 8.361 24.152 20 28.28v41.887c0 26.375 21.458 47.833 47.833 47.833h68.333c26.375 0 47.833-21.458 47.833-47.833v-41.887c11.639-4.128 20-15.243 20-28.28 0-15.869-12.388-28.892-28-29.926v-28.563c6.776-22.322 19.106-42.33 35.741-57.921.216-.203.425-.412.64-.615h122.18c3.832 0 7.327-2.189 8.998-5.638 3.945-8.132 5.544-17.239 4.628-26.338zm-189.487 79.001h-82.009c.561-3.935.649-7.952.245-11.969-2.259-22.467-19.384-40.217-41.731-43.367 1.689-1.252 3.298-2.638 4.812-4.152 8.793-8.795 23.103-8.795 31.895 0 16.592 16.592 43.589 16.592 60.18 0 4.26-4.26 9.923-6.606 15.947-6.606s11.688 2.347 15.947 6.606c6.154 6.154 13.741 10.02 21.696 11.609-11.73 14.051-20.891 30.28-26.982 47.879zm51.245-73.559c-8.799 8.718-23.048 8.698-31.816-.072-8.038-8.037-18.724-12.464-30.09-12.464s-22.052 4.427-30.09 12.464c-8.793 8.795-23.102 8.795-31.896 0-16.59-16.592-43.588-16.592-60.179 0-4.26 4.26-9.924 6.606-15.948 6.606-5.946 0-11.535-2.295-15.776-6.451-17.647-21.084-28.557-46.543-31.7-73.63 7.896-5.607 18.933-4.896 26.005 2.176 7.844 7.844 18.146 11.765 28.449 11.765s20.606-3.922 28.449-11.765c7.89-7.89 20.727-7.89 28.615 0 15.688 15.686 41.211 15.688 56.899 0 7.89-7.889 20.726-7.889 28.615 0 15.687 15.686 41.212 15.686 56.898 0 6.844-6.844 17.407-7.741 25.237-2.711-3.035 27.436-13.946 52.947-31.672 74.082zm-202.39-156.81c7.724 7.724 17.993 11.978 28.916 11.978 10.922 0 21.191-4.254 28.915-11.978 3.946-3.946 9.192-6.12 14.773-6.12 5.58 0 10.827 2.174 14.773 6.12 15.943 15.943 41.886 15.943 57.831 0 3.946-3.946 9.192-6.12 14.773-6.12 5.58 0 10.827 2.174 14.772 6.12 12.753 12.752 31.897 15.293 47.21 7.647 7.637 16.504 12.132 34.655 12.874 53.618-13.75-4.156-29.302-.815-40.15 10.033-7.89 7.889-20.726 7.889-28.615 0-15.687-15.686-41.212-15.686-56.898 0-7.891 7.889-20.727 7.889-28.615 0-15.687-15.685-41.212-15.685-56.899 0-7.889 7.888-20.725 7.889-28.615 0-11.07-11.069-27.036-14.316-40.99-9.762.829-22.319 6.87-43.49 17.109-62.176 8.186-7.476 20.918-7.28 28.836.64zm-109.65 220.398c1.346-13.357 11.612-23.891 24.966-25.615 3.981-.515 7.943-.215 11.778.89 3.84 1.105 7.977-.184 10.51-3.279 7.968-9.745 19.745-15.335 32.311-15.335s24.343 5.59 32.312 15.335c2.533 3.098 6.667 4.388 10.508 3.279 3.84-1.104 7.804-1.403 11.785-.89 13.354 1.729 23.618 12.264 24.961 25.62.339 3.376.101 6.745-.691 9.967h-157.749c-.793-3.224-1.031-6.595-.691-9.972zm258.097 29.971v20h-108v-20zm8 120.167c0 15.348-12.486 27.833-27.833 27.833h-68.333c-15.348 0-27.833-12.485-27.833-27.833v-40.167h124v40.167zm20-70.167c0 5.514-4.486 10-10 10h-144c-5.514 0-10-4.486-10-10s4.486-10 10-10h144c5.514 0 10 4.487 10 10zm143.594-137.024h-97.391c11.866-15.802 20.722-33.672 26.128-52.606 9.626 1.777 18.369 6.887 24.699 14.628 2.531 3.097 6.665 4.39 10.507 3.279 3.839-1.104 7.803-1.405 11.78-.89 13.354 1.726 23.621 12.259 24.967 25.616.341 3.378.103 6.749-.69 9.973z"/><path id="XMLID_762_" d="m246.665 20c2.63 0 5.21-1.07 7.07-2.93s2.93-4.44 2.93-7.07-1.07-5.21-2.93-7.07c-1.86-1.859-4.44-2.93-7.07-2.93s-5.21 1.07-7.07 2.93c-1.87 1.86-2.93 4.44-2.93 7.07s1.06 5.21 2.93 7.07c1.86 1.86 4.44 2.93 7.07 2.93z"/></g></g></svg>