<?xml version="1.0" encoding="iso-8859-1"?>
<!-- Generator: Adobe Illustrator 19.0.0, SVG Export Plug-In . SVG Version: 6.00 Build 0)  -->
<svg version="1.1" id="Layer_1" xmlns="http://www.w3.org/2000/svg" xmlns:xlink="http://www.w3.org/1999/xlink" x="0px" y="0px"
	 viewBox="0 0 512 512" style="enable-background:new 0 0 512 512;" xml:space="preserve">
<g>
	<path style="fill:#B69362;" d="M222.609,475.826c-4.61,0-8.348-3.736-8.348-8.348v-66.783c0-4.611,3.738-8.348,8.348-8.348
		c4.61,0,8.348,3.736,8.348,8.348v66.783C230.957,472.09,227.22,475.826,222.609,475.826z"/>
	<path style="fill:#B69362;" d="M289.391,475.826c-4.61,0-8.348-3.736-8.348-8.348v-66.783c0-4.611,3.738-8.348,8.348-8.348
		s8.348,3.736,8.348,8.348v66.783C297.739,472.09,294.003,475.826,289.391,475.826z"/>
</g>
<path style="fill:#978574;" d="M211.478,467.478v35.617c0,4.917,3.987,8.904,8.904,8.904h71.235c4.917,0,8.904-3.987,8.904-8.904
	v-35.617H211.478z"/>
<path style="fill:#B0A18D;" d="M211.478,503.096c0,0.188,0.017,0.372,0.028,0.557h55.624c4.917,0,8.904-3.987,8.904-8.904v-6.678
	h-64.557V503.096z"/>
<path style="fill:#827061;" d="M306.087,475.826H205.913c-4.61,0-8.348-3.736-8.348-8.348s3.738-8.348,8.348-8.348h100.174
	c4.61,0,8.348,3.736,8.348,8.348S310.697,475.826,306.087,475.826z"/>
<path style="fill:#ECCE93;" d="M256.247,0c-0.082,0-0.165,0.003-0.247,0.003l-55.652,166.953L256,411.826h33.391
	c6.147,0,11.13-4.983,11.13-11.13c0-49.716,66.028-74.447,96.439-113.778c23.27-30.097,37.127-67.842,37.127-108.829
	C434.088,79.806,354.53,0.134,256.247,0z"/>
<path style="fill:#AB5034;" d="M256.217,0c-0.072,0-0.145,0.003-0.217,0.003l-55.652,166.953L256,411.826h29.217
	c5.379,0,9.739-4.983,9.739-11.13c0-49.716,57.774-74.447,84.384-113.778c20.361-30.097,32.485-67.842,32.485-108.829
	C411.827,79.806,342.213,0.134,256.217,0z"/>
<path style="fill:#ECCE93;" d="M256.124,0.002c-0.041,0-0.082,0.002-0.124,0.002l-55.652,166.952L256,411.826h11.13
	c6.147,0,11.13-4.983,11.13-11.13c2.056-49.716,40.467-74.447,63.015-113.778c17.253-30.097,28.347-67.843,30.041-108.831
	C375.386,79.709,323.808-0.035,256.124,0.002z"/>
<g>
	<path style="fill:#AB5034;" d="M256.124,0.002c-0.041,0-0.082,0.003-0.124,0.003l-55.652,166.951L256,411.826h0.051h1.794
		c3.564,0,6.452-4.984,6.452-11.13c1.192-49.716,28.115-74.447,41.186-113.778c10.002-30.097,16.432-67.843,17.415-108.831
		C325.258,79.709,295.358-0.035,256.124,0.002z"/>
	<path style="fill:#AB5034;" d="M77.913,178.087c0,40.988,13.855,78.734,37.127,108.831c30.411,39.331,96.439,64.061,96.439,113.778
		c0,6.147,4.983,11.13,11.13,11.13H256V0.003C157.646,0.003,77.913,79.733,77.913,178.087z"/>
</g>
<path style="fill:#ECCE93;" d="M100.174,178.087c0,40.988,12.123,78.734,32.485,108.831c26.611,39.331,84.384,64.061,84.384,113.778
	c0,6.147,4.36,11.13,9.739,11.13H256V0.003C169.939,0.003,100.174,79.733,100.174,178.087z"/>
<path style="fill:#AB5034;" d="M140.93,178.087c1.695,40.988,12.788,78.734,30.042,108.831
	c22.547,39.331,60.711,64.061,62.767,113.778c0,6.147,4.983,11.13,11.13,11.13H256V0.004
	C188.377,0.066,136.864,79.77,140.93,178.087z"/>
<path style="fill:#ECCE93;" d="M189.348,178.087c0.983,40.988,7.413,78.734,17.415,108.831
	c13.07,39.331,39.994,64.061,41.186,113.778c0,6.146,2.888,11.13,6.452,11.13H256V0.006
	C216.825,0.137,186.991,79.813,189.348,178.087z"/>
<path style="fill:#BD7155;" d="M77.913,178.087c0,17.552,2.548,34.505,7.28,50.522c27.381,36.88,71.257,60.782,120.72,60.782
	c17.564,0,34.42-3.024,50.087-8.562V0.003C157.646,0.003,77.913,79.733,77.913,178.087z"/>
<path style="fill:#F8E5B5;" d="M100.174,178.087c0,29.97,6.488,58.202,17.933,82.983c24.7,17.816,55.023,28.321,87.806,28.321
	c17.564,0,34.42-3.024,50.087-8.562V0.003C169.939,0.003,100.174,79.733,100.174,178.087z"/>
<path style="fill:#BD7155;" d="M140.93,178.087c1.661,40.151,12.355,77.172,29.009,106.959c11.527,2.833,23.573,4.345,35.974,4.345
	c17.564,0,34.42-3.024,50.087-8.562V0.004C188.377,0.066,136.864,79.77,140.93,178.087z"/>
<path style="fill:#F8E5B5;" d="M227.812,287.797c72.605-10.603,128.362-73.119,128.362-148.667
	c0-62.561-38.235-116.183-92.61-138.794c-2.458-0.214-4.936-0.335-7.441-0.334c-0.041,0-0.082,0.002-0.124,0.002l-55.652,166.952
	L227.812,287.797z"/>
<path style="fill:#BD7155;" d="M256.124,0.002c-0.041,0-0.082,0.003-0.124,0.003l-55.652,166.951l27.464,120.841
	c35.109-5.127,66.277-22.388,89.107-47.398c3.357-19.398,5.455-40.383,5.98-62.313C325.258,79.709,295.358-0.035,256.124,0.002z"/>
<path style="fill:#F8E5B5;" d="M189.348,178.087c0.983,40.988,7.413,78.734,17.415,108.831c0.275,0.827,0.564,1.638,0.85,2.452
	c16.952-0.188,33.227-3.181,48.387-8.54V0.006C216.825,0.137,186.991,79.813,189.348,178.087z"/>
<path style="opacity:0.3;fill:#8D472E;enable-background:new    ;" d="M324.568,342.486c-9.83,4.105-20.107,7.348-30.738,9.648
	c-6.621,1.432-13.377,2.503-20.25,3.177c-5.785,0.567-11.648,0.864-17.581,0.864c-4.289,0-8.539-0.161-12.752-0.46l0,0
	c-1.529-0.108-3.054-0.235-4.572-0.382c-6.928-0.669-13.738-1.739-20.411-3.178c-10.664-2.301-20.973-5.552-30.832-9.669
	c-9.256-3.866-18.115-8.489-26.502-13.795c26.034,20.695,50.548,41.711,50.548,72.005c0,6.147,4.983,11.13,11.13,11.13h4.174h18.087
	h9.531H256h0.051h1.794h9.285h18.087h4.174c6.147,0,11.13-4.983,11.13-11.13c0-30.294,24.514-51.31,50.548-72.005
	C342.683,333.995,333.824,338.62,324.568,342.486z"/>
<g>
</g>
<g>
</g>
<g>
</g>
<g>
</g>
<g>
</g>
<g>
</g>
<g>
</g>
<g>
</g>
<g>
</g>
<g>
</g>
<g>
</g>
<g>
</g>
<g>
</g>
<g>
</g>
<g>
</g>
</svg>
